<svg xmlns="http://www.w3.org/2000/svg" width="500" height="500" style="shape-rendering:geometricPrecision;text-rendering:geometricPrecision;image-rendering:optimizeQuality;fill-rule:evenodd;clip-rule:evenodd"><path style="opacity:1" fill="#e95469" d="M227.5 21.5c-4.513-1.128-9.013-1.128-13.5 0-1.863-1.689-4.03-3.022-6.5-4-12.498-2.726-25.165-3.559-38-2.5a109.67 109.67 0 0 0-14 4 32.438 32.438 0 0 1-8 .5c26.86-9.44 53.527-8.774 80 2z"/><path style="opacity:1" fill="#e56778" d="M227.5 21.5c5.785 1.036 11.118 3.036 16 6a69.005 69.005 0 0 1-14-4 30.968 30.968 0 0 1-2-2z"/><path style="opacity:1" fill="#e94e67" d="M147.5 19.5c.086.996-.248 1.83-1 2.5-3.699.553-6.699 2.22-9 5a91.775 91.775 0 0 1-9 3c-1.939.908-2.939 2.408-3 4.5h-5c7.907-6.79 16.907-11.79 27-15z"/><path style="opacity:1" fill="#e76778" d="M243.5 27.5c4.318 1.492 8.318 3.492 12 6a12.935 12.935 0 0 1-5-.5c-2.805-1.382-5.139-3.216-7-5.5z"/><path style="opacity:1" fill="#e6556b" d="M120.5 34.5a63.73 63.73 0 0 0-6 9l-2-1c-2.092 2.105-4.425 3.772-7 5 4.109-5.448 9.109-9.78 15-13z"/><path style="opacity:1" fill="#e86074" d="M255.5 33.5a173.676 173.676 0 0 1 27 16h-6c.17-1.322-.163-2.489-1-3.5a42.644 42.644 0 0 0-8-3.5 1346.914 1346.914 0 0 1-12-9z"/><path style="opacity:1" fill="#eb5169" d="M282.5 49.5a78.98 78.98 0 0 1 17 12 87.818 87.818 0 0 0-9-2c-.945-3.612-3.279-5.946-7-7a5.575 5.575 0 0 1-1-3z"/><path style="opacity:1" fill="#e8576c" d="M299.5 61.5a260.488 260.488 0 0 1 16 11.5 25.154 25.154 0 0 1 4 4.5 144.247 144.247 0 0 0-11-7 3.646 3.646 0 0 0-1.5 1 10.256 10.256 0 0 0-1.5-4c-3.725-.391-5.725-2.391-6-6z"/><path style="opacity:1" fill="#e55d72" d="M105.5 47.5a219.025 219.025 0 0 1-11.5 14 281.043 281.043 0 0 1-11 19 33.69 33.69 0 0 0-3.5 9c-1.142 1.326-2.475 2.326-4 3 6.778-17.245 16.778-32.245 30-45z"/><path style="opacity:1" fill="#eb5268" d="M320.5 77.5a139.758 139.758 0 0 1 15 13c-5.57-1.117-10.236-3.784-14-8-.952-1.545-1.285-3.212-1-5z"/><path style="opacity:1" fill="#f43856" d="M227.5 21.5a30.968 30.968 0 0 0 2 2 69.005 69.005 0 0 0 14 4c1.861 2.284 4.195 4.118 7 5.5 1.634.493 3.301.66 5 .5 3.922 2.976 7.922 5.976 12 9a42.644 42.644 0 0 1 8 3.5c.837 1.011 1.17 2.178 1 3.5h6a5.575 5.575 0 0 0 1 3c3.721 1.054 6.055 3.388 7 7a87.818 87.818 0 0 1 9 2c.275 3.609 2.275 5.609 6 6a10.256 10.256 0 0 1 1.5 4c.414-.457.914-.79 1.5-1a144.247 144.247 0 0 1 11 7h1c-.285 1.788.048 3.455 1 5 3.764 4.216 8.43 6.883 14 8-.273 2.458.727 4.125 3 5a23.45 23.45 0 0 0 3.5 7c1.113-1.211 2.28-1.211 3.5 0a22.136 22.136 0 0 0 3 6 8.905 8.905 0 0 1 4 3c1-1.333 2-1.333 3 0 3.649 3.984 7.316 7.984 11 12 3.763 2.277 7.096 4.943 10 8l9 8c1.667 1 3 2.333 4 4 3.27 4.94 7.27 9.273 12 13 1.433 2.058 2.1 4.392 2 7a6.846 6.846 0 0 1 4 1c1.3 2.795 2.8 5.461 4.5 8 3.268 1.442 6.101 3.442 8.5 6 1.792 3.046 2.792 6.379 3 10a4.934 4.934 0 0 1 3 .5 37.357 37.357 0 0 1 5 7 4.934 4.934 0 0 0 3 .5 76.162 76.162 0 0 1 12 17 67.144 67.144 0 0 0 5.5 14c.986.671 2.153.671 3.5 0 6.621 9.573 11.954 19.906 16 31 2.123 9.067 5.123 17.733 9 26a198.889 198.889 0 0 1 3 35 161.574 161.574 0 0 0-1 16 14.698 14.698 0 0 0-3.5 3c.564 6.25-1.269 11.584-5.5 16a13.116 13.116 0 0 0-1 7 72.786 72.786 0 0 1-8 12c-1.644.214-3.144-.12-4.5-1-1.415 4.815-4.582 7.815-9.5 9-1.139 2.504-1.806 5.17-2 8-3.001-.262-5.668-1.096-8-2.5.935 2.381 1.268 4.881 1 7.5-3.06.212-5.393.879-7 2-1.675 4.461-4.508 5.127-8.5 2a9.454 9.454 0 0 1-2.5 1.5c1.939.908 2.939 2.408 3 4.5a12.93 12.93 0 0 0-5 .5l1 1c-2.152 1.413-4.486 2.246-7 2.5v3c-5.208.907-9.874 3.074-14 6.5l-6 1 1 1c-5.337 2.336-10.67 4.67-16 7-1.819.74-3.152 1.907-4 3.5a244.243 244.243 0 0 1-15 4c-1.049 1.716-2.382 3.049-4 4a72.032 72.032 0 0 0-11 1v3c-4.19-.527-7.523.806-10 4-.342.838-1.008 1.172-2 1-3.416.028-6.416 1.028-9 3-14.502 5.712-29.502 10.046-45 13a2629.536 2629.536 0 0 0-40 6.5c-.752.671-1.086 1.504-1 2.5h-1a717.719 717.719 0 0 1-103 6c-.077-1.25-.744-2.083-2-2.5a77.6 77.6 0 0 0-10 0c-2.391-1.309-2.391-2.309 0-3-3.239-2.117-6.239-1.784-9 1l-5 .5c-7.942-3.068-16.275-5.068-25-6-1.364-1.873-3.03-3.539-5-5a10.256 10.256 0 0 0-4-1.5c2.974-1.097 4.64-3.263 5-6.5-1.865-1.166-3.532-.833-5 1a16.874 16.874 0 0 1-8 1c.333-3-1-4.333-4-4-2.103-3.626-1.103-5.792 3-6.5a20.509 20.509 0 0 0-4.5-2.5 4.932 4.932 0 0 0-.5 3h-4c-2.087-1.085-3.42-2.751-4-5a29.07 29.07 0 0 0-2-8c-2.615-1.667-4.448-4-5.5-7-.67-.752-1.504-1.086-2.5-1v-1c-2.264-8.157-5.264-15.824-9-23-1.274-2.493-1.94-5.159-2-8a300.085 300.085 0 0 1-5.5-43 702.465 702.465 0 0 1 0-53 129.021 129.021 0 0 0 1.5-26v-1c3.255-11.274 4.921-22.94 5-35v-2c.958-.453 1.792-1.119 2.5-2a188.212 188.212 0 0 0 1.5-17v-1c.958-.453 1.792-1.119 2.5-2a234.83 234.83 0 0 0 5.5-32c.242-3.979 1.242-7.646 3-11 1.424-2.015 2.09-4.348 2-7 .708-1.878 1.874-3.545 3.5-5a267.758 267.758 0 0 0 3.5-18v-1c2.931-2.513 4.264-5.847 4-10v-1c1.604-.787 2.27-2.12 2-4h3c-.256-4.309.744-8.309 3-12a10.255 10.255 0 0 1 1.5 4c1.488-7.764 2.988-15.43 4.5-23 1.525-.674 2.858-1.674 4-3a33.69 33.69 0 0 1 3.5-9 281.043 281.043 0 0 0 11-19 219.025 219.025 0 0 0 11.5-14c2.575-1.228 4.908-2.895 7-5l2 1a63.73 63.73 0 0 1 6-9h5c.061-2.092 1.061-3.592 3-4.5a91.775 91.775 0 0 0 9-3c2.301-2.78 5.301-4.447 9-5 .752-.67 1.086-1.504 1-2.5a32.438 32.438 0 0 0 8-.5 109.67 109.67 0 0 1 14-4c12.835-1.059 25.502-.226 38 2.5 2.47.978 4.637 2.311 6.5 4 4.487-1.128 8.987-1.128 13.5 0z"/><path style="opacity:1" fill="#bebebe" d="M288.5 105.5h1c4.358.603 8.691 1.77 13 3.5a8.43 8.43 0 0 1-4 .5 2269.12 2269.12 0 0 1 1 121.5c.026 13.783.693 27.45 2 41-2.206 1.25-3.539 3.084-4 5.5 1.291-.237 2.291.096 3 1-6.342.166-12.675 0-19-.5a3.943 3.943 0 0 1-1-2 6721.809 6721.809 0 0 1 3-165c-1.123-1.044-2.456-1.71-4-2l5-1c-9.994-.5-19.994-.666-30-.5v9h-1v-10a511.301 511.301 0 0 1 35-1z"/><path style="opacity:1" fill="#b7b7b8" d="M321.5 111.5a150.888 150.888 0 0 0-1 20 1122.16 1122.16 0 0 0-3 36 1074.366 1074.366 0 0 0-5 62 300.134 300.134 0 0 0-1 13c-1.389 4.769-2.056 9.769-2 15a228.111 228.111 0 0 1-1 22h-7c0-.667-.333-1-1-1-.709-.904-1.709-1.237-3-1 .461-2.416 1.794-4.25 4-5.5a435.358 435.358 0 0 1-2-41 2269.12 2269.12 0 0 0-1-121.5 8.43 8.43 0 0 0 4-.5c-4.309-1.73-8.642-2.897-13-3.5a813 813 0 0 1 32-1v7z"/><path style="opacity:1" fill="#d47f8d" d="M322.5 111.5h-1v-7a813 813 0 0 0-32 1h-1v-1h1a401.344 401.344 0 0 1 33-1v8z"/><path style="opacity:1" fill="#6c1f37" d="M283.5 99.5c2.589.919 4.589 2.586 6 5h-1c-2-1.333-3.667-3-5-5z"/><path style="opacity:1" fill="#3b142b" d="M95.5 88.5c-.827 5.5-3.493 9.833-8 13a40.614 40.614 0 0 1 8-13z"/><path style="opacity:1" fill="#b43651" d="M265.5 85.5a8.435 8.435 0 0 1 4 .5 45.511 45.511 0 0 1 7 7.5 32.73 32.73 0 0 1-11-8z"/><path style="opacity:1" fill="#5e192f" d="M109.5 74.5c-4.333 5-9 9.667-14 14a46.725 46.725 0 0 1 14-14z"/><path style="opacity:1" fill="#dc3a56" d="M248.5 73.5c3.939 1.602 7.939 2.436 12 2.5.705 3.33 2.371 6.496 5 9.5-5.338-3.335-10.671-6.668-16-10l-1-2z"/><path style="opacity:1" fill="#291328" d="M231.5 65.5h2c1.681 1.507 3.681 2.507 6 3 2.278 2.972 5.278 4.639 9 5l1 2c-4.014.676-7.014-.657-9-4a28.1 28.1 0 0 0-9-3.5c1.098-.77 1.098-1.603 0-2.5z"/><path style="opacity:1" fill="#481328" d="M117.5 67.5c-1.739 2.743-4.073 4.743-7 6 1.739-2.743 4.073-4.743 7-6z"/><path style="opacity:1" fill="#bd3654" d="M239.5 68.5c3.481.817 6.481 2.483 9 5-3.722-.361-6.722-2.028-9-5z"/><path style="opacity:1" fill="#75223c" d="M123.5 62.5c-1.411 2.414-3.411 4.08-6 5 1.411-2.414 3.411-4.08 6-5z"/><path style="opacity:1" fill="#9d2f4c" d="M227.5 62.5c2.467.255 4.467 1.255 6 3h-2c-1.904-.238-3.238-1.238-4-3z"/><path style="opacity:1" fill="#ac3450" d="M215.5 57.5c4.712.192 8.712 1.859 12 5-4.338-1.178-8.338-2.845-12-5z"/><path style="opacity:1" fill="#0c1229" d="m186.5 50.5 10 1c4.002 2.11 8.335 3.443 13 4h1c1.135 1.713 2.802 2.38 5 2 3.662 2.155 7.662 3.822 12 5 .762 1.762 2.096 2.762 4 3 1.098.897 1.098 1.73 0 2.5a28.1 28.1 0 0 1 9 3.5c1.986 3.343 4.986 4.676 9 4 5.329 3.332 10.662 6.665 16 10a32.73 32.73 0 0 0 11 8c2.308 1.97 4.642 3.97 7 6 1.333 2 3 3.667 5 5v1a511.301 511.301 0 0 0-35 1v10c-2.619-.268-5.119.065-7.5 1a9517.45 9517.45 0 0 0-.5 138h-1a1038.485 1038.485 0 0 0-15-53c.09-2.652-.576-4.985-2-7a845.74 845.74 0 0 0-16-54 720.587 720.587 0 0 0-10-36c.214-1.644-.12-3.144-1-4.5-8.51-.823-16.844-.657-25 .5a677.868 677.868 0 0 0-47 2.5 64.998 64.998 0 0 1-4 9.5c-1.644-.214-3.144.12-4.5 1a23.91 23.91 0 0 0-2.5 9 228.635 228.635 0 0 1-4 13c-3.37 6.943-5.87 14.276-7.5 22a7.293 7.293 0 0 0-2-3 26.708 26.708 0 0 1-2.5 9.5 15.894 15.894 0 0 1 1 6.5c-1.443.835-2.443 2.168-3 4a154.395 154.395 0 0 1-8.5 27 304.897 304.897 0 0 1-6.5 29 1414.263 1414.263 0 0 1-11 42c-2.731 3.822-4.064 8.156-4 13h6c3.798.983 7.798 1.317 12 1v1c4.04 1.617 8.373 2.45 13 2.5 1.712 1.751 3.712 2.418 6 2l-2-1 3.5-.5a122.449 122.449 0 0 0 19.5 1 21.127 21.127 0 0 0 9-1 23.832 23.832 0 0 0 1-9h6v-3l1-6c1.572-2.715 2.572-5.715 3-9h23c.233 3.042 1.233 5.708 3 8 1.134 2.87 1.8 5.87 2 9-.241 2.398.426 4.398 2 6-.268 1.599.066 2.932 1 4 9.578 1.723 18.912 1.056 28-2 3.578-.049 6.911-.715 10-2 2.559.302 4.893-.032 7-1 6.696.109 13.363-.224 20-1 .105-3.758-.895-7.092-3-10 1.419-.951 3.085-1.284 5-1-.322 5.858.011 11.525 1 17 16.375.956 32.709.29 49-2h6v-10h7a228.111 228.111 0 0 0 1-22c1.531-4.75 2.198-9.75 2-15 .239-4.342.573-8.676 1-13 .814-2.131 1.314-4.464 1.5-7l1 1c.906-5.902 1.072-11.735.5-17.5a549.719 549.719 0 0 1 4-27.5c-1.594-3.491-2.261-7.158-2-11a1122.16 1122.16 0 0 1 3-36 28.071 28.071 0 0 1 5 5c4 4.667 8.333 9 13 13l9 10a96.331 96.331 0 0 0 16 17c.58 2.249 1.913 3.915 4 5 1.667 1 3 2.333 4 4a75.568 75.568 0 0 0 8 9c1.1 1.105 1.767 2.438 2 4 .919 2.589 2.586 4.589 5 6a40.609 40.609 0 0 1 5 7c-.173 2.679-1.173 5.013-3 7l.5 2a192.458 192.458 0 0 1 4-3c2.39 1.701 3.89 4.034 4.5 7 1.397 2.106 3.23 3.773 5.5 5 .684 1.979.184 3.646-1.5 5a18.924 18.924 0 0 1 3 5c.169-.897.502-1.897 1-3 1.299.59 2.132 1.59 2.5 3l1 8c.654 1.196 1.154 1.196 1.5 0-1.604-2.625-1.27-3.625 1-3 2.143 1.631 3.81 3.631 5 6 1.316 3.934 2.983 7.601 5 11v2a71.285 71.285 0 0 0 3 9 166.673 166.673 0 0 1 3 18l-1 3c-.765-1.112-1.765-1.779-3-2a34.695 34.695 0 0 0-3-10 73.685 73.685 0 0 0-8-6.5c2.372-1.471 2.372-2.637 0-3.5-1.529.029-2.696.696-3.5 2-5.75-1.141-11.584-1.307-17.5-.5-.556.383-.889.883-1 1.5-.667 0-1 .333-1 1h-2a47.11 47.11 0 0 0-12 2.5c-1.527 3.037-3.693 5.537-6.5 7.5.218 2.087.051 4.087-.5 6a112.148 112.148 0 0 1-4-12c-1.756 1.866-3.756 3.199-6 4-2.281-.423-3.948.244-5 2a60016.48 60016.48 0 0 0-24 4 162.597 162.597 0 0 1-18-.5l1-1a4.934 4.934 0 0 0-3-.5v3c3.048-.006 3.548.994 1.5 3a72.367 72.367 0 0 0-.5 12 54.968 54.968 0 0 0-12 1 243.245 243.245 0 0 1-4.5-8 6.293 6.293 0 0 0-3-1 99.606 99.606 0 0 1-19.5 6c-2.222-.322-4.056.345-5.5 2a72.367 72.367 0 0 0-.5 12c-1.446 5.774-2.112 11.774-2 18v16a99.97 99.97 0 0 0-2 8c-.381 3.619-1.381 6.952-3 10v-1c.198-5.036-.802-9.703-3-14a104.618 104.618 0 0 1-1-9c1.157-8.742-.51-16.742-5-24v-4a41.541 41.541 0 0 0-1-8c-3.377-.432-6.377.235-9 2h-2c-4.267.756-8.267 2.089-12 4-1.869 2.135-2.536 4.802-2 8a219.542 219.542 0 0 0 6 20v2a72.032 72.032 0 0 1 1 11c-3.581-.362-6.581.638-9 3h-1c-3.307.551-6.64.884-10 1 .302-2.559-.032-4.893-1-7l-2-10c.22-4.6-.446-8.933-2-13a39.712 39.712 0 0 0-1-11c-.834-1.248-2.167-1.915-4-2-3.237.178-6.237.845-9 2-2.398-.241-4.398.426-6 2h-6c-.306 2.885.027 5.552 1 8-.568 5.769.432 11.102 3 16a98.901 98.901 0 0 0 2 11c.306 3.889.306 7.555 0 11a108.282 108.282 0 0 0-14 3h-5c.237-1.291-.096-2.291-1-3a128.323 128.323 0 0 0-1-12 72.367 72.367 0 0 0-.5-12 188.447 188.447 0 0 0-3.5-15c-3.127-1.315-6.127-.982-9 1-3.989-.384-7.655.283-11 2h-5c.169 4.681.502 9.348 1 14a40.574 40.574 0 0 0 2 14l-1 4c-.708-2.245-1.708-4.245-3-6a81.248 81.248 0 0 0-3.5-21c-1.292-1.291-2.458-1.291-3.5 0-3.624.824-7.29 1.824-11 3a32.735 32.735 0 0 0-12 3c-3.135-1.283-6.135-1.283-9 0-.342.838-1.008 1.172-2 1-3.856.471-7.69 1.138-11.5 2-1.376.184-2.209.851-2.5 2h-5c-2.065.017-4.065.35-6 1-4.173-.544-8.007.123-11.5 2a75.885 75.885 0 0 0-.5 20 14.984 14.984 0 0 1 3.5-3c1.481 8.081 2.981 16.247 4.5 24.5l-1 4.5c-1.489.033-2.822.533-4 1.5a7.248 7.248 0 0 1 2 2.5c-2.567 2.755-2.567 5.588 0 8.5l-1 2.5c-1.35-1.45-3.017-2.117-5-2a301.462 301.462 0 0 0-3-4c-.255-2.467-1.255-4.467-3-6a145.3 145.3 0 0 1-9-32c-.838-.342-1.172-1.008-1-2a198.613 198.613 0 0 0-1-14 1765.85 1765.85 0 0 1-1-55v-13a49.767 49.767 0 0 0 2.5-7l1-15 1 2a352.409 352.409 0 0 1 4.5-40c.869-2.217 1.202-4.55 1-7 1.574-1.602 2.24-3.602 2-6v-2c1.424-2.015 2.09-4.348 2-7v-1c4.255-7.721 6.588-16.054 7-25a19.24 19.24 0 0 0 1-6 87.746 87.746 0 0 0 4-10 153.584 153.584 0 0 1 8.5-20 129.7 129.7 0 0 1 1.5-7v-1c2.435-3.629 4.102-7.629 5-12 1.235-.221 2.235-.888 3-2 .357-3.777 2.357-5.944 6-6.5-1.179-2.796-1.179-5.629 0-8.5v-1c4.507-3.167 7.173-7.5 8-13 5-4.333 9.667-9 14-14 0-.667.333-1 1-1 2.927-1.257 5.261-3.257 7-6 2.589-.92 4.589-2.586 6-5 1.653-.16 2.986-.826 4-2 5.874-1.275 11.208-3.608 16-7a18.977 18.977 0 0 1 8-2 352.374 352.374 0 0 1 35-1z"/><path style="opacity:1" fill="#dddcdd" d="m199.5 102.5 2 3a720.587 720.587 0 0 1 10 36c.396 2.982-.271 5.649-2 8 2.774 3.069 3.274 6.403 1.5 10a6167.23 6167.23 0 0 1-1.5 111c-1 .333-1.667 1-2 2 1.506 1.247 3.006 1.247 4.5 0l.5 1a32.065 32.065 0 0 0-4 2.5c1.558.21 2.891.71 4 1.5a26.335 26.335 0 0 0-5 2h-2c-4.914-.138-9.581.528-14 2h-6v-5c1.359.507 2.359 1.507 3 3a32.444 32.444 0 0 1 6-1.5 7.293 7.293 0 0 1-3-2c.949-.617 1.782-.451 2.5.5 2-2 2-4 0-6a3570.23 3570.23 0 0 0-2.5-145 336.457 336.457 0 0 1 4-15c-2.667-1.333-2.667-2.667 0-4a19.887 19.887 0 0 0-4-3.5c2.962-.301 5.628-.468 8-.5z"/><path style="opacity:1" fill="#e4e3e4" d="M175.5 101.5c8.184-.326 16.184.008 24 1-2.372.032-5.038.199-8 .5a19.887 19.887 0 0 1 4 3.5c-2.667 1.333-2.667 2.667 0 4a336.457 336.457 0 0 0-4 15 3570.23 3570.23 0 0 1 2.5 145c2 2 2 4 0 6-.718-.951-1.551-1.117-2.5-.5a7.293 7.293 0 0 0 3 2 32.444 32.444 0 0 0-6 1.5c-.641-1.493-1.641-2.493-3-3-.962-3.895-2.296-7.561-4-11a97.879 97.879 0 0 0-3-13 59.803 59.803 0 0 0-6.5-4 3.943 3.943 0 0 1-2 1c-4.295-1.799-8.795-2.465-13.5-2v-3h3a23.776 23.776 0 0 0-2.5-6 687.146 687.146 0 0 1-.5-20c1.276-1.145 2.609-1.145 4 0 .929-1.189 1.262-2.522 1-4h-7a34.119 34.119 0 0 1 1-10c-.237-2.563-.737-2.563-1.5 0a8.43 8.43 0 0 1-.5-4c1.699-.027 3.033-.694 4-2a116.31 116.31 0 0 0-2 15h18c.295-2.235-.039-4.235-1-6-.253-3.54-.919-6.873-2-10a188.78 188.78 0 0 0-2-12c.809-1.792 1.309-3.792 1.5-6 .667-1.333 1.333-1.333 2 0 2.833-2.148 3.666-4.815 2.5-8-1.45 2.641-2.117 2.308-2-1 .112-20.687.446-41.354 1-62a4.934 4.934 0 0 1-3-.5c2.031-.632 3.698-1.799 5-3.5a38.064 38.064 0 0 0-15-.5c-1.516 2.29-3.683 3.456-6.5 3.5-7.972-1.567-16.139-2.234-24.5-2a11.012 11.012 0 0 0-2 5.5c.878 2.497 1.211 4.831 1 7-2.407.257-4.073 1.424-5 3.5v-4c.934-1.068 1.268-2.401 1-4a64.998 64.998 0 0 0 4-9.5 677.868 677.868 0 0 1 47-2.5z"/><path style="opacity:1" fill="#9397a3" d="M175.5 101.5c8.156-1.157 16.49-1.323 25-.5.88 1.356 1.214 2.856 1 4.5l-2-3c-7.816-.992-15.816-1.326-24-1z"/><path style="opacity:1" fill="#49142a" d="M143.5 53.5c-4.792 3.392-10.126 5.725-16 7a43.023 43.023 0 0 1 16-7z"/><path style="opacity:1" fill="#9f2e49" d="M210.5 55.5c2.198-.38 3.865.287 5 2-2.198.38-3.865-.287-5-2z"/><path style="opacity:1" fill="#882845" d="M196.5 51.5h4l9 4c-4.665-.557-8.998-1.89-13-4z"/><path style="opacity:1" fill="#300e26" d="M159.5 49.5c9.182-.327 18.182.007 27 1a352.374 352.374 0 0 0-35 1c2.338-1.54 5.005-2.206 8-2z"/><path style="opacity:1" fill="#b53551" d="M200.5 51.5h-4l-10-1c-8.818-.993-17.818-1.327-27-1 .111-.617.444-1.117 1-1.5 13.701-1.219 27.034-.052 40 3.5z"/><path style="opacity:1" fill="#ea4761" d="M335.5 90.5a195.382 195.382 0 0 1 24 23c3.063 4.066 6.729 7.399 11 10a25.658 25.658 0 0 1 6 6v2c-2.904-3.057-6.237-5.723-10-8-3.684-4.016-7.351-8.016-11-12-1-1.333-2-1.333-3 0a8.905 8.905 0 0 0-4-3 22.136 22.136 0 0 1-3-6c-1.22-1.211-2.387-1.211-3.5 0a23.45 23.45 0 0 1-3.5-7c-2.273-.875-3.273-2.542-3-5z"/><path style="opacity:1" fill="#c7c5c5" d="M300.5 278.5c.667 0 1 .333 1 1h-1c-15.33.44-30.664.773-46 1v-173c10.006-.166 20.006 0 30 .5l-5 1c1.544.29 2.877.956 4 2a6721.809 6721.809 0 0 0-3 165 3.943 3.943 0 0 0 1 2c6.325.5 12.658.666 19 .5z"/><path style="opacity:1" fill="#ededed" d="M168.5 185.5c-.904-.709-1.237-1.709-1-3 .09-2.652-.576-4.985-2-7 .269-1.929-.231-3.595-1.5-5a90.813 90.813 0 0 0-4.5 21c-.934 1.068-1.268 2.401-1 4a5.727 5.727 0 0 0-1 3c-.967 1.306-2.301 1.973-4 2a8.43 8.43 0 0 0 .5 4c.763-2.563 1.263-2.563 1.5 0a34.119 34.119 0 0 0-1 10h7c.262 1.478-.071 2.811-1 4-1.391-1.145-2.724-1.145-4 0 .068 6.591.234 13.258.5 20a23.776 23.776 0 0 1 2.5 6h-3v3c4.705-.465 9.205.201 13.5 2a3.943 3.943 0 0 0 2-1 59.803 59.803 0 0 1 6.5 4c-9.672-.166-19.339 0-29 .5-.88 1.356-1.214 2.856-1 4.5-.961 1.765-1.295 3.765-1 6-1.777 3.005-2.777 6.338-3 10l-1 6c-1.614 1.575-3.614 2.241-6 2h-1c-1.089-1.617-2.756-2.45-5-2.5a1850.558 1850.558 0 0 0-53-4.5c1.012-4.015 2.012-8.015 3-12a408.626 408.626 0 0 1 6-22c3.187-5.199 4.853-10.866 5-17a38.044 38.044 0 0 1 3-9c1.424-2.015 2.09-4.348 2-7a701.681 701.681 0 0 1 14-48c2.306-3.585 3.639-7.585 4-12 1.424-2.015 2.09-4.348 2-7v-1c1.574-1.602 2.241-3.602 2-6a44.435 44.435 0 0 1 4-12c.927-2.076 2.593-3.243 5-3.5.211-2.169-.122-4.503-1-7 .173-2.021.84-3.854 2-5.5 8.361-.234 16.528.433 24.5 2 2.817-.044 4.984-1.21 6.5-3.5a38.064 38.064 0 0 1 15 .5c-1.302 1.701-2.969 2.868-5 3.5a4.934 4.934 0 0 0 3 .5 2895.826 2895.826 0 0 0-1 62c-.117 3.308.55 3.641 2 1 1.166 3.185.333 5.852-2.5 8-.667-1.333-1.333-1.333-2 0-.191 2.208-.691 4.208-1.5 6z"/><path style="opacity:.008" fill="#ee8292" d="M359.5 113.5c4.271 2.601 7.937 5.934 11 10-4.271-2.601-7.937-5.934-11-10z"/><path style="opacity:1" fill="#281225" d="M87.5 102.5c-1.179 2.871-1.179 5.704 0 8.5-3.643.556-5.643 2.723-6 6.5-.765 1.112-1.765 1.779-3 2 2.003-4.671 4.003-9.338 6-14a10.162 10.162 0 0 1 3-3z"/><path style="opacity:1" fill="#933048" d="M124.5 113.5c.268 1.599-.066 2.932-1 4-.017-1.528-.684-2.028-2-1.5a89.856 89.856 0 0 1-4 7.5 23.91 23.91 0 0 1 2.5-9c1.356-.88 2.856-1.214 4.5-1z"/><path style="opacity:1" fill="#da3c59" d="M84.5 105.5c-1.997 4.662-3.997 9.329-6 14-2.435 3.629-4.102 7.629-5 12v1l-2 1c1.011-3.612 1.178-7.279.5-11-2.126-.897-2.626-2.231-1.5-4 1.222 2.478 3.222 3.478 6 3 1.74-4.508 3.24-9.175 4.5-14 .816-1.323 1.983-1.989 3.5-2z"/><path style="opacity:1" fill="#e95167" d="M75.5 92.5a3040.406 3040.406 0 0 0-4.5 23 10.255 10.255 0 0 0-1.5-4c-2.256 3.691-3.256 7.691-3 12h-3c.27 1.88-.396 3.213-2 4a268.365 268.365 0 0 1 14-35z"/><path style="opacity:1" fill="#4d162d" d="M78.5 119.5c-.898 4.371-2.565 8.371-5 12 .898-4.371 2.565-8.371 5-12z"/><path style="opacity:1" fill="#e83f5c" d="M247.5 118.5h1a5781.837 5781.837 0 0 0 1 150c-1.037-1.43-1.704-3.097-2-5v-145z"/><path style="opacity:1" fill="#9e314d" d="M253.5 116.5v1c-2.235-.295-4.235.039-6 1v145c-1.54-2.338-2.206-5.005-2-8-.167-46.001 0-92.001.5-138 2.381-.935 4.881-1.268 7.5-1z"/><path style="opacity:1" fill="#dc465d" d="M247.5 118.5c1.765-.961 3.765-1.295 6-1v163a6562.825 6562.825 0 0 1-1-162h-5z"/><path style="opacity:1" fill="#db8594" d="M253.5 116.5h1v164c15.336-.227 30.67-.56 46-1a238.66 238.66 0 0 1-47 1v-164z"/><path style="opacity:1" fill="#f13954" d="M248.5 118.5h4a6562.825 6562.825 0 0 0 1 162 238.66 238.66 0 0 0 47-1h1v10h-20a760.27 760.27 0 0 0-34 1 69.302 69.302 0 0 1 1-16c.841-1.879 1.175-3.879 1-6a5781.837 5781.837 0 0 1-1-150z"/><path style="opacity:1" fill="#d65167" d="M321.5 111.5h1c-.166 6.675 0 13.342.5 20 1.059 2.159 2.559 3.826 4.5 5h-2a28.071 28.071 0 0 0-5-5 150.888 150.888 0 0 1 1-20z"/><path style="opacity:.835" fill="#f08499" d="M376.5 129.5c3.734 2.731 6.734 6.064 9 10l-9-8v-2z"/><path style="opacity:1" fill="#e56175" d="M61.5 128.5c.264 4.153-1.069 7.487-4 10 .767-3.649 2.1-6.982 4-10z"/><path style="opacity:1" fill="#992e4b" d="M325.5 136.5h2a57.51 57.51 0 0 0 9 9c1.1 1.105 1.767 2.438 2 4-4.667-4-9-8.333-13-13z"/><path style="opacity:1" fill="#ef99a7" d="M119.5 133.5c.241 2.398-.426 4.398-2 6-.241-2.398.426-4.398 2-6z"/><path style="opacity:1" fill="#47132b" d="M73.5 132.5a129.7 129.7 0 0 0-1.5 7 153.584 153.584 0 0 0-8.5 20 195.848 195.848 0 0 1 8-26l2-1z"/><path style="opacity:1" fill="#f9b1bb" d="M117.5 140.5c.09 2.652-.576 4.985-2 7-.09-2.652.576-4.985 2-7z"/><path style="opacity:1" fill="#e87086" d="M389.5 143.5c4.73 3.727 8.73 8.06 12 13-4.73-3.727-8.73-8.06-12-13z"/><path style="opacity:1" fill="#9a3150" d="M111.5 145.5c-.557 4.665-1.89 8.998-4 13 .557-4.665 1.89-8.998 4-13z"/><path style="opacity:1" fill="#faaab5" d="M115.5 147.5c-.361 4.415-1.694 8.415-4 12 .761-4.284 2.095-8.284 4-12z"/><path style="opacity:1" fill="#d5d5d5" d="M211.5 141.5a845.74 845.74 0 0 1 16 54c-.09 2.652.576 4.985 2 7a1038.485 1038.485 0 0 1 15 53c-.225 4.548.441 8.882 2 13a36.945 36.945 0 0 1-1 6c-1.915-.284-3.581.049-5 1h-1l-27 2c-1.109-.79-2.442-1.29-4-1.5a32.065 32.065 0 0 1 4-2.5l-.5-1c-1.494 1.247-2.994 1.247-4.5 0 .333-1 1-1.667 2-2a6167.23 6167.23 0 0 0 1.5-111c1.774-3.597 1.274-6.931-1.5-10 1.729-2.351 2.396-5.018 2-8z"/><path style="opacity:1" fill="#dd3c5a" d="M336.5 145.5c2.305 2.281 4.972 4.281 8 6 1.055 4.131 3.055 4.798 6 2a4.457 4.457 0 0 1 2 1.5l-3 3c1.334 2.087 3.167 3.587 5.5 4.5a46.428 46.428 0 0 0 3.5 7l-11-10-9-10c-.233-1.562-.9-2.895-2-4z"/><path style="opacity:1" fill="#e55a6f" d="M57.5 139.5a267.758 267.758 0 0 1-3.5 18c-1.626 1.455-2.792 3.122-3.5 5 1.576-7.99 3.91-15.657 7-23z"/><path style="opacity:1" fill="#4e142c" d="m347.5 159.5 11 10a25.497 25.497 0 0 1 5 7 96.331 96.331 0 0 1-16-17z"/><path style="opacity:1" fill="#251028" d="m113.5 136.5-2 9c-2.11 4.002-3.443 8.335-4 13a85.398 85.398 0 0 0-2 8 27.195 27.195 0 0 0-3 5 15.894 15.894 0 0 0-1-6.5 26.708 26.708 0 0 0 2.5-9.5 7.293 7.293 0 0 1 2 3c1.63-7.724 4.13-15.057 7.5-22z"/><path style="opacity:1" fill="#b3344e" d="M63.5 159.5a87.746 87.746 0 0 1-4 10c-.75-4.366.582-7.699 4-10z"/><path style="opacity:.859" fill="#e27488" d="M50.5 162.5c.09 2.652-.576 4.985-2 7-.09-2.652.576-4.985 2-7z"/><path style="opacity:.957" fill="#ea798f" d="M411.5 167.5c2.087 1.085 3.42 2.751 4 5-2.087-1.085-3.42-2.751-4-5z"/><path style="opacity:1" fill="#eb516a" d="M401.5 156.5a39.312 39.312 0 0 1 10 11c.58 2.249 1.913 3.915 4 5 2.414 1.411 4.081 3.411 5 6-2.399-2.558-5.232-4.558-8.5-6a59.319 59.319 0 0 1-4.5-8 6.846 6.846 0 0 0-4-1c.1-2.608-.567-4.942-2-7z"/><path style="opacity:1" fill="#9c2f4e" d="M59.5 169.5a19.24 19.24 0 0 1-1 6h-1c-.24-2.398.426-4.398 2-6z"/><path style="opacity:1" fill="#9e2f49" d="M105.5 166.5c-.756 4.267-2.089 8.267-4 12a51.569 51.569 0 0 1 1-7 27.195 27.195 0 0 1 3-5z"/><path style="opacity:1" fill="#531229" d="M363.5 176.5c2.087 1.085 3.42 2.751 4 5-2.087-1.085-3.42-2.751-4-5z"/><path style="opacity:1" fill="#f498a6" d="M165.5 175.5c1.424 2.015 2.09 4.348 2 7-1.424-2.015-2.09-4.348-2-7z"/><path style="opacity:1" fill="#c93b5b" d="m57.5 178.5-2 7c-1.574 1.602-2.24 3.602-2 6 .172.992-.162 1.658-1 2-.615-5.92 1.052-10.92 5-15z"/><path style="opacity:1" fill="#241125" d="M102.5 171.5a51.569 51.569 0 0 0-1 7 646.734 646.734 0 0 0-12.5 43c-.95 3.662-2.45 6.995-4.5 10a304.897 304.897 0 0 0 6.5-29 154.395 154.395 0 0 0 8.5-27c.557-1.832 1.557-3.165 3-4z"/><path style="opacity:1" fill="#e7566c" d="M420.5 178.5a142.993 142.993 0 0 1 14 18 4.934 4.934 0 0 1-3-.5 37.357 37.357 0 0 0-5-7 4.934 4.934 0 0 0-3-.5c-.208-3.621-1.208-6.954-3-10z"/><path style="opacity:1" fill="#be3857" d="M371.5 185.5c1.59.128 2.923.795 4 2a348.639 348.639 0 0 1 4 7 75.568 75.568 0 0 1-8-9z"/><path style="opacity:1" fill="#de4f65" d="M165.5 175.5c-.09 2.652.576 4.985 2 7-.237 1.291.096 2.291 1 3a188.78 188.78 0 0 1 2 12 784.66 784.66 0 0 1-6.5-21 98.558 98.558 0 0 0-.5 31c-1.663-1.938-2.329-4.272-2-7a33.691 33.691 0 0 0-2-9 90.813 90.813 0 0 1 4.5-21c1.269 1.405 1.769 3.071 1.5 5z"/><path style="opacity:1" fill="#2d1126" d="M57.5 175.5h1c-.412 8.946-2.745 17.279-7 25a19.24 19.24 0 0 1 1-6v-1c.838-.342 1.172-1.008 1-2 1.78-1.49 2.447-3.49 2-6l2-7v-3z"/><path style="opacity:1" fill="#731e3b" d="M55.5 185.5c.447 2.51-.22 4.51-2 6-.24-2.398.426-4.398 2-6z"/><path style="opacity:1" fill="#e45d74" d="M45.5 180.5a234.83 234.83 0 0 1-5.5 32c-.708.881-1.542 1.547-2.5 2a307.58 307.58 0 0 1 8-34z"/><path style="opacity:1" fill="#cc3f5f" d="M52.5 194.5a19.24 19.24 0 0 0-1 6v1c-1.424 2.015-2.09 4.348-2 7v2h-1a51.715 51.715 0 0 1 2.5-15c.383-.556.883-.889 1.5-1z"/><path style="opacity:1" fill="#752c3f" d="M159.5 191.5a33.691 33.691 0 0 1 2 9 27.195 27.195 0 0 0-3-5c-.268-1.599.066-2.932 1-4z"/><path style="opacity:1" fill="#7e828e" d="M227.5 195.5c1.424 2.015 2.09 4.348 2 7-1.424-2.015-2.09-4.348-2-7z"/><path style="opacity:1" fill="#4d132d" d="M381.5 198.5c2.414 1.411 4.081 3.411 5 6-2.414-1.411-4.081-3.411-5-6z"/><path style="opacity:1" fill="#f13b57" d="M170.5 197.5c1.081 3.127 1.747 6.46 2 10v5h-8c.237-1.291-.096-2.291-1-3v-2a98.558 98.558 0 0 1 .5-31c2.09 7.1 4.257 14.1 6.5 21z"/><path style="opacity:1" fill="#631d33" d="M51.5 201.5c.09 2.652-.576 4.985-2 7-.09-2.652.576-4.985 2-7z"/><path style="opacity:1" fill="#1f162b" d="M158.5 195.5a27.195 27.195 0 0 1 3 5c-.329 2.728.337 5.062 2 7v6h-8a116.31 116.31 0 0 1 2-15 5.727 5.727 0 0 1 1-3z"/><path style="opacity:1" fill="#f8adbc" d="M97.5 207.5c.09 2.652-.576 4.985-2 7-.09-2.652.576-4.985 2-7z"/><path style="opacity:1" fill="#1f2434" d="M317.5 167.5c-.261 3.842.406 7.509 2 11a549.719 549.719 0 0 0-4 27.5c.572 5.765.406 11.598-.5 17.5l-1-1c-.186 2.536-.686 4.869-1.5 7a1074.366 1074.366 0 0 1 5-62z"/><path style="opacity:1" fill="#df647d" d="M172.5 207.5c.961 1.765 1.295 3.765 1 6h-10v-4c.904.709 1.237 1.709 1 3h8v-5z"/><path style="opacity:1" fill="#701f38" d="M48.5 210.5h1c.24 2.398-.426 4.398-2 6a19.24 19.24 0 0 1 1-6z"/><path style="opacity:1" fill="#e85067" d="M446.5 213.5c3.781 4.124 6.781 8.791 9 14-1.347.671-2.514.671-3.5 0a67.144 67.144 0 0 1-5.5-14z"/><path style="opacity:1" fill="#dc435c" d="M123.5 117.5v4a44.435 44.435 0 0 0-4 12c-1.574 1.602-2.241 3.602-2 6v1c-1.424 2.015-2.09 4.348-2 7-1.905 3.716-3.239 7.716-4 12a701.681 701.681 0 0 0-14 48c-1.424 2.015-2.09 4.348-2 7a38.044 38.044 0 0 0-3 9 255.605 255.605 0 0 0-5 17 408.626 408.626 0 0 0-6 22c-2.513 3.878-3.846 8.211-4 13-.81-1.792-1.31-3.792-1.5-6a51.19 51.19 0 0 0-2.5 4 1414.263 1414.263 0 0 0 11-42c2.05-3.005 3.55-6.338 4.5-10a646.734 646.734 0 0 1 12.5-43c1.911-3.733 3.244-7.733 4-12a85.398 85.398 0 0 1 2-8c2.11-4.002 3.443-8.335 4-13l2-9a228.635 228.635 0 0 0 4-13 89.856 89.856 0 0 0 4-7.5c1.316-.528 1.983-.028 2 1.5z"/><path style="opacity:1" fill="#d13d5b" d="M403.5 227.5c.996-.086 1.829.248 2.5 1a67.876 67.876 0 0 0 7 12 60.869 60.869 0 0 1 3.5 10c-1.19-2.369-2.857-4.369-5-6a8.43 8.43 0 0 0-.5-4 72701.63 72701.63 0 0 1-7.5-13z"/><path style="opacity:1" fill="#e6566b" d="M37.5 215.5a188.212 188.212 0 0 1-1.5 17c-.708.881-1.542 1.547-2.5 2 .843-6.557 2.177-12.89 4-19z"/><path style="opacity:1" fill="#f9bcc8" d="M92.5 223.5c-.147 6.134-1.813 11.801-5 17a255.605 255.605 0 0 1 5-17z"/><path style="opacity:1" fill="#261328" d="m391.5 211.5 12 16 7.5 13a8.43 8.43 0 0 1 .5 4c-2.27-.625-2.604.375-1 3-.346 1.196-.846 1.196-1.5 0l-1-8c-.368-1.41-1.201-2.41-2.5-3-.498 1.103-.831 2.103-1 3a18.924 18.924 0 0 0-3-5c1.684-1.354 2.184-3.021 1.5-5-2.27-1.227-4.103-2.894-5.5-5-.61-2.966-2.11-5.299-4.5-7a192.458 192.458 0 0 0-4 3l-.5-2c1.827-1.987 2.827-4.321 3-7z"/><path style="opacity:1" fill="#cf3d5a" d="M48.5 210.5a19.24 19.24 0 0 0-1 6c.202 2.45-.131 4.783-1 7a874.923 874.923 0 0 0-9 52 522.886 522.886 0 0 1 3.5-38c2.424-6.039 3.757-12.372 4-19 .85-2.909 2.017-5.576 3.5-8z"/><path style="opacity:1" fill="#c23a5a" d="M416.5 250.5c2.926 2.976 4.592 6.642 5 11-2.017-3.399-3.684-7.066-5-11z"/><path style="opacity:1" fill="#e26276" d="M33.5 236.5c-.079 12.06-1.745 23.726-5 35 .845-11.916 2.512-23.582 5-35z"/><path style="opacity:1" fill="#6f717e" d="M311.5 242.5c.198 5.25-.469 10.25-2 15-.056-5.231.611-10.231 2-15z"/><path style="opacity:1" fill="#361227" d="M46.5 223.5a352.409 352.409 0 0 0-4.5 40l-1-2-1 15a49.767 49.767 0 0 1-2.5 7v-8a874.923 874.923 0 0 1 9-52z"/><path style="opacity:1" fill="#cf3a59" d="M148.5 257.5v4c7.674-.166 15.341 0 23 .5a20.499 20.499 0 0 0 2.5 3.5c.838 5.346 1.671 10.679 2.5 16h-1c-.2-3.13-.866-6.13-2-9a46.86 46.86 0 0 0-2-9h-24c-.295-2.235.039-4.235 1-6z"/><path style="opacity:1" fill="#421025" d="M147.5 264.5v-1h24a46.86 46.86 0 0 1 2 9c-1.767-2.292-2.767-4.958-3-8h-23z"/><path style="opacity:1" fill="#ddb6be" d="M244.5 255.5h1c-.206 2.995.46 5.662 2 8 .296 1.903.963 3.57 2 5 .175 2.121-.159 4.121-1 6h-3a36.945 36.945 0 0 0 1-6c-1.559-4.118-2.225-8.452-2-13z"/><path style="opacity:1" fill="#e2556c" d="M471.5 258.5c4.169 8.171 7.169 16.838 9 26-3.877-8.267-6.877-16.933-9-26z"/><path style="opacity:1" fill="#f9b0bc" d="M81.5 262.5c-.988 3.985-1.988 7.985-3 12v1h-1c.154-4.789 1.487-9.122 4-13z"/><path style="opacity:1" fill="#505562" d="M147.5 263.5v1c-.428 3.285-1.428 6.285-3 9 .223-3.662 1.223-6.995 3-10z"/><path style="opacity:1" fill="#b1334f" d="M421.5 263.5c3.464 3.125 5.131 7.125 5 12l-2-3a71.285 71.285 0 0 1-3-9z"/><path style="opacity:1" fill="#e98191" d="M181.5 265.5c1.704 3.439 3.038 7.105 4 11v2c-2.11-4.002-3.443-8.335-4-13z"/><path style="opacity:1" fill="#a3334f" d="M409.5 275.5h-3c-5.614-1.175-11.281-1.175-17 0 0-.667.333-1 1-1 6.567-1.6 12.901-1.267 19 1z"/><path style="opacity:1" fill="#f69faa" d="M99.5 277.5c5.551.027 10.884.694 16 2-5.584.245-10.917-.422-16-2z"/><path style="opacity:1" fill="#fcd6d8" d="M78.5 275.5v-1a1850.558 1850.558 0 0 1 53 4.5c2.244.05 3.911.883 5 2.5h-1a169.385 169.385 0 0 1-20-2c-5.116-1.306-10.449-1.973-16-2a393.618 393.618 0 0 1-21-2z"/><path style="opacity:1" fill="#f43855" d="M77.5 275.5a9.107 9.107 0 0 1-1 5c.825.886 1.825 1.219 3 1v-3c6.34.349 12.673.849 19 1.5a14.719 14.719 0 0 1 6.5 2.5c9.666-.074 19.499-.074 29.5 0v8a420.57 420.57 0 0 0-35-2c-1.459.067-2.792-.266-4-1-7.634-.761-15.301-2.095-23-4a11.99 11.99 0 0 0 1-6v-4a51.19 51.19 0 0 1 2.5-4c.19 2.208.69 4.208 1.5 6z"/><path style="opacity:1" fill="#ea425c" d="M77.5 275.5h1a393.618 393.618 0 0 0 21 2c5.083 1.578 10.416 2.245 16 2a169.385 169.385 0 0 0 20 2c0 .667-.333 1-1 1a1959.908 1959.908 0 0 0-29.5 0 14.719 14.719 0 0 0-6.5-2.5 400.87 400.87 0 0 0-19-1.5v3c-1.175.219-2.175-.114-3-1a9.107 9.107 0 0 0 1-5z"/><path style="opacity:1" fill="#646270" d="M143.5 279.5v3h-6v-1c2.386.241 4.386-.425 6-2z"/><path style="opacity:1" fill="#2d1327" d="M423.5 291.5c-1.63-1.526-2.463-3.526-2.5-6a160.02 160.02 0 0 0-11.5-10c-6.099-2.267-12.433-2.6-19-1 .111-.617.444-1.117 1-1.5 5.916-.807 11.75-.641 17.5.5.804-1.304 1.971-1.971 3.5-2 2.372.863 2.372 2.029 0 3.5a73.685 73.685 0 0 1 8 6.5 34.695 34.695 0 0 1 3 10z"/><path style="opacity:1" fill="#872844" d="M383.5 278.5c-4.082 3.867-7.415 8.2-10 13 1.157-5.97 4.491-10.303 10-13z"/><path style="opacity:1" fill="#cb3b5b" d="M426.5 275.5c1.193.47 1.86 1.47 2 3a41.535 41.535 0 0 1 1 9c-1.547-3.752-2.547-7.752-3-12z"/><path style="opacity:1" fill="#8b2d46" d="M73.5 273.5v4c-1.767 2.292-2.767 4.958-3 8 1.915-.284 3.581.049 5 1h-6c-.064-4.844 1.269-9.178 4-13z"/><path style="opacity:1" fill="#ef3e59" d="M178.5 252.5a97.879 97.879 0 0 1 3 13c.557 4.665 1.89 8.998 4 13v3h6c4.914.138 9.581-.528 14-2h2c10.903-.543 21.569-1.876 32-4h1v7a2977.561 2977.561 0 0 0-36 4.5c-.916.278-1.582.778-2 1.5-.667 0-1 .333-1 1a470.563 470.563 0 0 1-23 2c-.934-1.068-1.268-2.401-1-4a19.22 19.22 0 0 0-1-6c-.829-5.321-1.662-10.654-2.5-16a20.499 20.499 0 0 1-2.5-3.5c-7.659-.5-15.326-.666-23-.5v-4c-.214-1.644.12-3.144 1-4.5 9.661-.5 19.328-.666 29-.5z"/><path style="opacity:1" fill="#e17c8a" d="M205.5 279.5c-4.419 1.472-9.086 2.138-14 2 4.419-1.472 9.086-2.138 14-2z"/><path style="opacity:1" fill="#e37688" d="M239.5 275.5c-10.431 2.124-21.097 3.457-32 4a26.335 26.335 0 0 1 5-2l27-2z"/><path style="opacity:1" fill="#c93b57" d="M240.5 279.5c1.412 1.73 1.078 3.23-1 4.5a528.851 528.851 0 0 0-16 2.5c-2.107.968-4.441 1.302-7 1-4.693.04-9.359.373-14 1 .418-.722 1.084-1.222 2-1.5a2977.561 2977.561 0 0 1 36-4.5v-3z"/><path style="opacity:1" fill="#46142e" d="M240.5 275.5c2.105 2.908 3.105 6.242 3 10a150.888 150.888 0 0 1-20 1 528.851 528.851 0 0 1 16-2.5c2.078-1.27 2.412-2.77 1-4.5v-4z"/><path style="opacity:1" fill="#952c48" d="M358.5 283.5h6v4c-.904-.709-1.237-1.709-1-3-3.36.116-6.693.449-10 1 1.052-1.756 2.719-2.423 5-2z"/><path style="opacity:1" fill="#ce3a59" d="M364.5 287.5c.973 2.448 1.306 5.115 1 8-1.37-3.119-2.37-6.452-3-10a103.04 103.04 0 0 0-20 4.5 84.902 84.902 0 0 1-13 .5v-1a60016.48 60016.48 0 0 1 24-4 76.926 76.926 0 0 1 10-1c-.237 1.291.096 2.291 1 3z"/><path style="opacity:1" fill="#ce3b58" d="M73.5 277.5a11.99 11.99 0 0 1-1 6c7.699 1.905 15.366 3.239 23 4h-8c-4.202.317-8.202-.017-12-1-1.419-.951-3.085-1.284-5-1 .233-3.042 1.233-5.708 3-8z"/><path style="opacity:1" fill="#6f2236" d="M175.5 281.5h1a19.22 19.22 0 0 1 1 6c-1.574-1.602-2.241-3.602-2-6z"/><path style="opacity:1" fill="#e5677a" d="M28.5 272.5a129.021 129.021 0 0 1-1.5 26 702.465 702.465 0 0 0 0 53 300.085 300.085 0 0 0 5.5 43c-2.641-8.703-4.474-17.703-5.5-27-3.535-31.877-3.035-63.543 1.5-95z"/><path style="opacity:1" fill="#6a1a35" d="M87.5 288.5v-1h8c1.208.734 2.541 1.067 4 1v1a73.312 73.312 0 0 1-12-1z"/><path style="opacity:1" fill="#571430" d="M216.5 287.5c-3.089 1.285-6.422 1.951-10 2h-5c0-.667.333-1 1-1 4.641-.627 9.307-.96 14-1z"/><path style="opacity:1" fill="#bc3a5a" d="M135.5 281.5h1a76.926 76.926 0 0 1-1 10h-8a396.928 396.928 0 0 0-28-2v-1a420.57 420.57 0 0 1 35 2v-8c.667 0 1-.333 1-1z"/><path style="opacity:1" fill="#a9354f" d="M245.5 274.5h3a69.302 69.302 0 0 0-1 16 760.27 760.27 0 0 1 34-1 408.569 408.569 0 0 1-35 2c-.989-5.475-1.322-11.142-1-17z"/><path style="opacity:1" fill="#51142d" d="M281.5 289.5h14a247.524 247.524 0 0 1-49 2 408.569 408.569 0 0 0 35-2z"/><path style="opacity:1" fill="#e2596f" d="M480.5 284.5c2.828 8.31 4.161 16.977 4 26 .31 3.213-.023 6.213-1 9 .03-11.782-.97-23.449-3-35z"/><path style="opacity:1" fill="#241126" d="M87.5 288.5c3.966.662 7.966.995 12 1a396.928 396.928 0 0 1 28 2v1a122.449 122.449 0 0 1-19.5-1l-3.5.5 2 1c-2.288.418-4.288-.249-6-2-4.627-.05-8.96-.883-13-2.5z"/><path style="opacity:1" fill="#582137" d="M136.5 281.5h1v1a23.832 23.832 0 0 1-1 9 21.127 21.127 0 0 1-9 1v-1h8c.551-3.307.884-6.64 1-10z"/><path style="opacity:1" fill="#2c1025" d="M201.5 289.5h5c-9.088 3.056-18.422 3.723-28 2a470.563 470.563 0 0 0 23-2z"/><path style="opacity:1" fill="#a7324e" d="M329.5 290.5a170.918 170.918 0 0 1-15 4.5c-.944 2.719-1.277 5.552-1 8.5-1.825-2.973-2.158-6.139-1-9.5a76.434 76.434 0 0 1 17-3.5z"/><path style="opacity:1" fill="#f33856" d="M365.5 295.5v7c-1.88-.271-3.213.396-4 2v1h-8c-.295 2.235.039 4.235 1 6a98.432 98.432 0 0 0 .5 14 229.973 229.973 0 0 0 5.5 26c-1.679-.215-2.679.452-3 2h-3a77.1 77.1 0 0 1-13 1c.241-2.398-.426-4.398-2-6 .09-2.652-.576-4.985-2-7l-2-8c.241-2.398-.426-4.398-2-6v-14c-3.989-.384-7.655.283-11 2h-6c-.428-3.285-1.428-6.285-3-9v-3c-.277-2.948.056-5.781 1-8.5a170.918 170.918 0 0 0 15-4.5 84.902 84.902 0 0 0 13-.5 103.04 103.04 0 0 1 20-4.5c.63 3.548 1.63 6.881 3 10z"/><path style="opacity:1" fill="#f13957" d="M297.5 310.5c-.997-.03-1.664.47-2 1.5 2.497 3.752 2.497 7.585 0 11.5a13.049 13.049 0 0 0-4-3l-2 .5c1.504 1.491 2.337 3.324 2.5 5.5 3.297 1.679 4.297 4.346 3 8-2.541-2.588-4.541-5.588-6-9 .155 3.34.655 6.674 1.5 10 1.322-.17 2.489.163 3.5 1 .79 3.134.457 6.134-1 9-2.851-.744-5.517-.744-8 0-.492 1.049-.326 2.049.5 3-1.685 1.009-3.018.509-4-1.5 1.538-5.843 2.538-11.676 3-17.5-.318 4.532.015 8.866 1 13 2.107.968 4.441 1.302 7 1 .423-2.281-.244-3.948-2-5-.412-2.387-1.412-4.387-3-6v-2c0-2-1-3-3-3-.996.086-1.829-.248-2.5-1 .197 7.483-1.303 14.483-4.5 21-2.181.216-3.847-.617-5-2.5a4.457 4.457 0 0 1 2-1.5 43.233 43.233 0 0 0 .5-16l-3 14a100.553 100.553 0 0 0-4-13l-1 1a423.48 423.48 0 0 1 2.5 21.5c.043 4.202-.624 8.202-2 12a45.468 45.468 0 0 0 2 7.5c4.644-.826 9.311-1.659 14-2.5.96-3.73 1.293-7.563 1-11.5a83.16 83.16 0 0 0 16-2c.569 3.714 2.069 4.381 4.5 2 2.362.863 3.862 2.53 4.5 5 3.072-.37 5.739-1.537 8-3.5-2.528-.998-2.528-1.831 0-2.5a7.293 7.293 0 0 1 3 2l1-1.5c-1.385-1.597-2.051-3.43-2-5.5 1.026 1.353 2.359 2.353 4 3 1.613 1.338 2.113 3.005 1.5 5-2.533.45-4.7 1.45-6.5 3h-2a4960.413 4960.413 0 0 0-12 4c-1.788-.937-3.121-2.27-4-4-.301-2.859-1.967-4.193-5-4-2.938.068-5.605.734-8 2-.979 3.125-1.313 6.458-1 10-2.567.221-4.901.888-7 2h-15v-20a245.761 245.761 0 0 0 1-24v-8c.825-4.147 1.325-8.481 1.5-13 1.409-1.281 2.909-2.281 4.5-3a514.29 514.29 0 0 0 21-2.5c2.453 2.705 4.12 5.872 5 9.5z"/><path style="opacity:1" fill="#bb3954" d="M365.5 295.5c1.869 2.135 2.536 4.802 2 8a19.22 19.22 0 0 0-6 1c.787-1.604 2.12-2.271 4-2v-7z"/><path style="opacity:1" fill="#d5405d" d="M430.5 290.5c.722.418 1.222 1.084 1.5 2a162.756 162.756 0 0 1-1 33c-.278.916-.778 1.582-1.5 2v-4c2.231-10.802 2.565-21.802 1-33z"/><path style="opacity:1" fill="#171128" d="M329.5 289.5v1a76.434 76.434 0 0 0-17 3.5c-1.158 3.361-.825 6.527 1 9.5v3a81.802 81.802 0 0 0 2 10c1.765.961 3.765 1.295 6 1-3.378.776-6.045 1.776-8 3 .52-5.895-1.814-10.228-7-13-3.195 1.377-3.695 3.377-1.5 6a4.457 4.457 0 0 1 1.5-2 241.694 241.694 0 0 1 7 15c-1.251 2.984-.251 5.151 3 6.5-.752.671-1.086 1.504-1 2.5l-2-1a2098.268 2098.268 0 0 0-8-14c0-1.333-.667-2-2-2a8.43 8.43 0 0 0-.5-4c-2.289-2.246-3.789-4.913-4.5-8a54.968 54.968 0 0 1 12-1 72.367 72.367 0 0 1 .5-12c2.048-2.006 1.548-3.006-1.5-3v-3a4.934 4.934 0 0 1 3 .5l-1 1c5.991.499 11.991.666 18 .5z"/><path style="opacity:1" fill="#e33b59" d="M406.5 275.5h3a160.02 160.02 0 0 1 11.5 10c.037 2.474.87 4.474 2.5 6a18.974 18.974 0 0 1 2 8v8c-1.88-.271-3.213.396-4 2a182.465 182.465 0 0 0-17 6 20.69 20.69 0 0 1-5 1c2.867-2.998 6.533-4.665 11-5a3.647 3.647 0 0 1 1-1.5 18.453 18.453 0 0 1 6-.5v-4h-3v-3a41.908 41.908 0 0 0 10 4c.145-7.732-2.022-14.732-6.5-21a65.804 65.804 0 0 0-8.5-.5c-2.059-1.185-2.226-2.352-.5-3.5 1.567 1.356 3.4 2.023 5.5 2v-3c-3.17-.892-5.837-2.558-8-5z"/><path style="opacity:1" fill="#651b34" d="M371.5 296.5v22c-1.208-4.111-1.875-8.445-2-13-.157-3.314.509-6.314 2-9z"/><path style="opacity:1" fill="#6f213b" d="M429.5 290.5h1c1.565 11.198 1.231 22.198-1 33 1.333-11 1.333-22 0-33z"/><path style="opacity:1" fill="#bb3755" d="M298.5 306.5c.711 3.087 2.211 5.754 4.5 8a8.43 8.43 0 0 1 .5 4c-2.008-2.673-4.008-5.34-6-8-.88-3.628-2.547-6.795-5-9.5a514.29 514.29 0 0 1-21 2.5 99.606 99.606 0 0 0 19.5-6 6.293 6.293 0 0 1 3 1 243.245 243.245 0 0 0 4.5 8z"/><path style="opacity:1" fill="#8b2b43" d="M357.5 305.5c-.709.904-1.709 1.237-3 1v5c-.961-1.765-1.295-3.765-1-6h4z"/><path style="opacity:1" fill="#2e1022" d="M357.5 305.5h4c-1.804.881-3.304 2.214-4.5 4a67.844 67.844 0 0 0 .5 15 119.978 119.978 0 0 1-3-13v-5c1.291.237 2.291-.096 3-1z"/><path style="opacity:1" fill="#7a2545" d="M425.5 299.5c3.66 5.431 2.327 8.764-4 10 .787-1.604 2.12-2.271 4-2v-8z"/><path style="opacity:1" fill="#6f1f3a" d="M249.5 317.5c-1.112-2.099-1.779-4.433-2-7l-8 1c2.623-1.765 5.623-2.432 9-2a41.541 41.541 0 0 1 1 8z"/><path style="opacity:1" fill="#1c1126" d="m424.5 272.5 2 3c.453 4.248 1.453 8.248 3 12v3c1.333 11 1.333 22 0 33v5c-1.174 1.014-1.84 2.347-2 4-.722.418-1.222 1.084-1.5 2a38.715 38.715 0 0 0-2.5-5 82.73 82.73 0 0 0-1-14c-1.291-.237-2.291.096-3 1a26.175 26.175 0 0 0-7 5c-3.8 1.643-7.8 2.31-12 2-1.21-.432-2.21-1.099-3-2v-3c2.846-.052 5.18-1.052 7-3a182.465 182.465 0 0 1 17-6c6.327-1.236 7.66-4.569 4-10a18.974 18.974 0 0 0-2-8c1.235.221 2.235.888 3 2l1-3a166.673 166.673 0 0 0-3-18z"/><path style="opacity:1" fill="#80273e" d="M237.5 311.5c-3.585 2.306-7.585 3.639-12 4 3.733-1.911 7.733-3.244 12-4z"/><path style="opacity:1" fill="#ab3855" d="M313.5 306.5c1.572 2.715 2.572 5.715 3 9h4c-1.419.951-3.085 1.284-5 1a81.802 81.802 0 0 1-2-10z"/><path style="opacity:1" fill="#77253f" d="M37.5 287.5v9c-1.17 16.174-1.17 32.507 0 49-.958-1.802-1.625-3.802-2-6-.167-14.67 0-29.337.5-44 .183-2.865.683-5.531 1.5-8z"/><path style="opacity:1" fill="#df3d5b" d="M249.5 317.5v6c-2.121-3.259-3.121-6.926-3-11-6.623.155-12.79 1.822-18.5 5a9.62 9.62 0 0 0-1.5 4.5c1.649 4.332 2.315 8.832 2 13.5a67.013 67.013 0 0 0-5-12c-.536-3.198.131-5.865 2-8 4.415-.361 8.415-1.694 12-4h2l8-1c.221 2.567.888 4.901 2 7z"/><path style="opacity:1" fill="#d93f5c" d="M37.5 276.5v11c-.817 2.469-1.317 5.135-1.5 8-.5 14.663-.667 29.33-.5 44a562.71 562.71 0 0 1-.5-58 38.715 38.715 0 0 1 2.5-5z"/><path style="opacity:1" fill="#7c2741" d="M204.5 319.5c-4.24-.598-8.574-.598-13 0 2.763-1.155 5.763-1.822 9-2 1.833.085 3.166.752 4 2z"/><path style="opacity:1" fill="#8c2542" d="M271.5 303.5c-1.591.719-3.091 1.719-4.5 3-.175 4.519-.675 8.853-1.5 13v-2a72.367 72.367 0 0 1 .5-12c1.444-1.655 3.278-2.322 5.5-2z"/><path style="opacity:1" fill="#63162c" d="M404.5 315.5c-1.82 1.948-4.154 2.948-7 3v3c-1.725-.343-2.225-1.343-1.5-3a19.602 19.602 0 0 0 3.5-2 20.69 20.69 0 0 0 5-1z"/><path style="opacity:1" fill="#81293d" d="M191.5 319.5c-1.602 1.574-3.602 2.241-6 2 1.602-1.574 3.602-2.241 6-2z"/><path style="opacity:1" fill="#260a23" d="M37.5 296.5c.048 18.34.381 36.673 1 55h-1v-6c-1.17-16.493-1.17-32.826 0-49z"/><path style="opacity:1" fill="#f43856" d="M209.5 361.5c.12 1.086.787 1.753 2 2a150.408 150.408 0 0 1 17-3l2 18c-1.983-.343-3.317.324-4 2h-1c-4.271-.019-7.937 1.314-11 4a408.122 408.122 0 0 1-17 5h-4a205.164 205.164 0 0 0-6-28v-2c-.314-7.018-1.314-13.852-3-20.5.573-3.176.74-6.343.5-9.5-1.145 1.184-2.312 1.184-3.5 0v-6c2.42.208 4.753-.126 7-1 1.922 1.46 2.589 3.127 2 5l2-2a9.86 9.86 0 0 1 1 6c2.135.353 3.468-.48 4-2.5a22.885 22.885 0 0 0-3-7c2.678-1.884 5.511-2.384 8.5-1.5 1.585 8.005 1.752 16.005.5 24 .825.886 1.825 1.219 3 1-.165 3.35.002 6.683.5 10 .037 2.474.87 4.474 2.5 6z"/><path style="opacity:1" fill="#a3324e" d="M160.5 328.5a72.032 72.032 0 0 0 1 11c-1.717-3.345-2.384-7.011-2-11l-8 1c2.873-1.982 5.873-2.315 9-1z"/><path style="opacity:.902" fill="#eb7a8d" d="M484.5 310.5c.661 1.634.994 3.467 1 5.5-.318 6.746-1.318 13.246-3 19.5.069-5.354.402-10.687 1-16 .977-2.787 1.31-5.787 1-9z"/><path style="opacity:1" fill="#b23653" d="M151.5 329.5c-.418.722-1.084 1.222-2 1.5a40.914 40.914 0 0 1-9 .5c3.345-1.717 7.011-2.384 11-2z"/><path style="opacity:1" fill="#f23856" d="M406.5 275.5c2.163 2.442 4.83 4.108 8 5v3c-2.1.023-3.933-.644-5.5-2-1.726 1.148-1.559 2.315.5 3.5 2.937-.011 5.77.155 8.5.5 4.478 6.268 6.645 13.268 6.5 21a41.908 41.908 0 0 1-10-4v3h3v4a18.453 18.453 0 0 0-6 .5 3.647 3.647 0 0 0-1 1.5c-4.467.335-8.133 2.002-11 5a19.602 19.602 0 0 1-3.5 2c-.725 1.657-.225 2.657 1.5 3 .79.901 1.79 1.568 3 2 .652 1.225 1.819 1.892 3.5 2 3.543-.191 6.377-1.525 8.5-4a26.175 26.175 0 0 1 7-5c1.225.652 1.892 1.819 2 3.5a85.643 85.643 0 0 1 1 15.5 12.93 12.93 0 0 0-5 .5c.88 1.356 1.214 2.856 1 4.5a62.424 62.424 0 0 0-13 3.5c-4.694.564-9.36.397-14-.5h-1c-1.309-2.951-3.643-4.284-7-4-5.819-5.973-9.819-12.973-12-21v-22c-.38-2.198.287-3.865 2-5 2.585-4.8 5.918-9.133 10-13a9.82 9.82 0 0 0 4-3h2c5.719-1.175 11.386-1.175 17 0z"/><path style="opacity:1" fill="#8a263e" d="M412.5 321.5c-2.123 2.475-4.957 3.809-8.5 4-1.681-.108-2.848-.775-3.5-2 4.2.31 8.2-.357 12-2z"/><path style="opacity:1" fill="#cd3857" d="M396.5 306.5a10.165 10.165 0 0 1 3-3c7.369-.654 8.035-3.487 2-8.5l-2.5-.5c-1.376.184-2.209.851-2.5 2-1 .333-1.667 1-2 2h-1c.203-1.544.87-2.878 2-4a25.879 25.879 0 0 1 10-1c.505 3.341.672 6.674.5 10a55.393 55.393 0 0 1-9.5 3z"/><path style="opacity:1" fill="#872742" d="M393.5 298.5a51.569 51.569 0 0 1-1 7l7-2a10.165 10.165 0 0 0-3 3h-5c-.389-3.053.277-5.72 2-8z"/><path style="opacity:1" fill="#2b0f22" d="m399.5 303.5-7 2a51.569 51.569 0 0 0 1-7h1c-.14 1.624.527 2.79 2 3.5 2.31.497 4.643.663 7 .5.173-4.823-2.161-6.823-7-6 .291-1.149 1.124-1.816 2.5-2l2.5.5c6.035 5.013 5.369 7.846-2 8.5z"/><path style="opacity:1" fill="#0d1229" d="M396.5 296.5c4.839-.823 7.173 1.177 7 6a24.935 24.935 0 0 1-7-.5c-1.473-.71-2.14-1.876-2-3.5.333-1 1-1.667 2-2z"/><path style="opacity:1" fill="#77223c" d="M223.5 323.5a67.013 67.013 0 0 1 5 12 41.541 41.541 0 0 1 1 8 219.542 219.542 0 0 1-6-20z"/><path style="opacity:1" fill="#35132a" d="M249.5 321.5c4.49 7.258 6.157 15.258 5 24a268.653 268.653 0 0 1-5-20v-4z"/><path style="opacity:1" fill="#431029" d="M265.5 317.5v10l-2 8c-.112-6.226.554-12.226 2-18z"/><path style="opacity:1" fill="#f33856" d="M161.5 339.5a73.314 73.314 0 0 1 1 12c-.239 5.684.761 11.018 3 16v4c2.235.295 4.235-.039 6-1a319.35 319.35 0 0 1 13-.5c.623 2.607 1.29 5.107 2 7.5h1a72.367 72.367 0 0 1-.5 12 39.064 39.064 0 0 1-4.5 2c-2.652-.09-4.985.576-7 2h-1a829.469 829.469 0 0 1-25 5c.284-1.915-.049-3.581-1-5-.63-2.25-1.63-4.25-3-6v-2c-.253-3.54-.919-6.873-2-10 .284-1.915-.049-3.581-1-5a339.859 339.859 0 0 0-6-34.5c.057-2.209 1.057-3.709 3-4.5h1a40.914 40.914 0 0 0 9-.5c.916-.278 1.582-.778 2-1.5l8-1c-.384 3.989.283 7.655 2 11z"/><path style="opacity:1" fill="#691934" d="M423.5 329.5a38.715 38.715 0 0 1 2.5 5c.278-.916.778-1.582 1.5-2-.77 2.996-2.104 5.663-4 8-.709-.904-1.709-1.237-3-1 2.524-2.739 3.524-6.072 3-10z"/><path style="opacity:1" fill="#d53c59" d="M419.5 316.5c.709-.904 1.709-1.237 3-1a82.73 82.73 0 0 1 1 14c.524 3.928-.476 7.261-3 10a38.496 38.496 0 0 1-6 4c-6.18 1.682-12.513 2.348-19 2-1.653-.16-2.986-.826-4-2a45.019 45.019 0 0 0 14 .5 62.424 62.424 0 0 1 13-3.5c.214-1.644-.12-3.144-1-4.5a12.93 12.93 0 0 1 5-.5 85.643 85.643 0 0 0-1-15.5c-.108-1.681-.775-2.848-2-3.5z"/><path style="opacity:1" fill="#d43959" d="M305.5 320.5c2.666 4.624 5.333 9.291 8 14a37.79 37.79 0 0 0 6 10 54.835 54.835 0 0 0 4 9c-1.641-.647-2.974-1.647-4-3-1.995-2.656-3.495-5.656-4.5-9-2.768-.708-3.601-2.208-2.5-4.5-3.169-5.22-5.502-10.72-7-16.5z"/><path style="opacity:1" fill="#3b1324" d="m313.5 334.5 2 1c2.14 2.616 3.474 5.616 4 9a37.79 37.79 0 0 1-6-10z"/><path style="opacity:1" fill="#5c1a31" d="M180.5 329.5h1a68.202 68.202 0 0 0 2 16c-2.568-4.898-3.568-10.231-3-16z"/><path style="opacity:1" fill="#d83957" d="M429.5 328.5a29.495 29.495 0 0 1-1 6.5c.285 1.89 1.285 3.223 3 4a12.17 12.17 0 0 0-3.5 4.5c-1.587-1.227-2.921-.894-4 1a17.758 17.758 0 0 0-1.5 7h-3a75.535 75.535 0 0 1 4-11c1.896-2.337 3.23-5.004 4-8 .16-1.653.826-2.986 2-4z"/><path style="opacity:1" fill="#a9324b" d="M205.5 330.5c1.554 4.067 2.22 8.4 2 13-1.677-4.045-2.344-8.378-2-13z"/><path style="opacity:1" fill="#f53755" d="M297.5 310.5c1.992 2.66 3.992 5.327 6 8 1.333 0 2 .667 2 2 1.498 5.78 3.831 11.28 7 16.5-1.101 2.292-.268 3.792 2.5 4.5 1.005 3.344 2.505 6.344 4.5 9-.051 2.07.615 3.903 2 5.5l-1 1.5a7.293 7.293 0 0 0-3-2c-2.528.669-2.528 1.502 0 2.5-2.261 1.963-4.928 3.13-8 3.5-.638-2.47-2.138-4.137-4.5-5-2.431 2.381-3.931 1.714-4.5-2a83.16 83.16 0 0 1-16 2c.293 3.937-.04 7.77-1 11.5-4.689.841-9.356 1.674-14 2.5a45.468 45.468 0 0 1-2-7.5c1.376-3.798 2.043-7.798 2-12a423.48 423.48 0 0 0-2.5-21.5l1-1a100.553 100.553 0 0 1 4 13l3-14a43.233 43.233 0 0 1-.5 16 4.457 4.457 0 0 0-2 1.5c1.153 1.883 2.819 2.716 5 2.5 3.197-6.517 4.697-13.517 4.5-21 .671.752 1.504 1.086 2.5 1v2c-.462 5.824-1.462 11.657-3 17.5.982 2.009 2.315 2.509 4 1.5-.826-.951-.992-1.951-.5-3 2.483-.744 5.149-.744 8 0 1.457-2.866 1.79-5.866 1-9-1.011-.837-2.178-1.17-3.5-1a49.923 49.923 0 0 1-1.5-10c1.459 3.412 3.459 6.412 6 9 1.297-3.654.297-6.321-3-8-.163-2.176-.996-4.009-2.5-5.5l2-.5a13.049 13.049 0 0 1 4 3c2.497-3.915 2.497-7.748 0-11.5.336-1.03 1.003-1.53 2-1.5z"/><path style="opacity:1" fill="#53142b" d="M287.5 330.5v2c-.977 2.787-1.31 5.787-1 9h4v-3c1.756 1.052 2.423 2.719 2 5-2.559.302-4.893-.032-7-1-.589-4.471.077-8.471 2-12z"/><path style="opacity:1" fill="#1c1022" d="M287.5 332.5c1.588 1.613 2.588 3.613 3 6v3h-4c-.31-3.213.023-6.213 1-9z"/><path style="opacity:1" fill="#b3324f" d="M284.5 327.5c2 0 3 1 3 3-1.923 3.529-2.589 7.529-2 12-.985-4.134-1.318-8.468-1-13v-2z"/><path style="opacity:1" fill="#b53751" d="M139.5 331.5c-1.943.791-2.943 2.291-3 4.5 2.6 11.438 4.6 22.938 6 34.5a994.555 994.555 0 0 0-6-25 198.913 198.913 0 0 1-1-14h4z"/><path style="opacity:1" fill="#370f25" d="M160.5 328.5a188.447 188.447 0 0 1 3.5 15c.499 3.986.666 7.986.5 12l-2-4a73.314 73.314 0 0 0-1-12 72.032 72.032 0 0 1-1-11z"/><path style="opacity:1" fill="#d83a5a" d="M181.5 329.5c1.188 1.184 2.355 1.184 3.5 0 .24 3.157.073 6.324-.5 9.5 1.686 6.648 2.686 13.482 3 20.5l-2-3a98.901 98.901 0 0 1-2-11 68.202 68.202 0 0 1-2-16z"/><path style="opacity:1" fill="#a53350" d="M93.5 343.5c-4.305 2.246-8.971 3.58-14 4 .291-1.149 1.124-1.816 2.5-2 3.81-.862 7.644-1.529 11.5-2z"/><path style="opacity:1" fill="#4d182e" d="M127.5 336.5c1.042-1.291 2.208-1.291 3.5 0a81.248 81.248 0 0 1 3.5 21v4a386.06 386.06 0 0 0-5-24c-.457-.798-1.124-1.131-2-1z"/><path style="opacity:1" fill="#f43855" d="M249.5 323.5v2a710.527 710.527 0 0 0 7 50c-.667 0-1 .333-1 1-5.433.13-10.766.63-16 1.5a42.36 42.36 0 0 1-1.5-8.5c-.383-.556-.883-.889-1.5-1a62.53 62.53 0 0 0-3-17c-.482-3.203-1.815-5.869-4-8a41.541 41.541 0 0 0-1-8c.315-4.668-.351-9.168-2-13.5a9.62 9.62 0 0 1 1.5-4.5c5.71-3.178 11.877-4.845 18.5-5-.121 4.074.879 7.741 3 11z"/><path style="opacity:1" fill="#2f1426" d="M319.5 344.5a11.105 11.105 0 0 1 4.5 3c.346 2.348 1.513 4.181 3.5 5.5l-2 7c-2.366.44-4.699.94-7 1.5 1.8-1.55 3.967-2.55 6.5-3 .613-1.995.113-3.662-1.5-5a54.835 54.835 0 0 1-4-9z"/><path style="opacity:1" fill="#0c1229" d="M387.5 275.5a9.82 9.82 0 0 1-4 3c-5.509 2.697-8.843 7.03-10 13-1.713 1.135-2.38 2.802-2 5-1.491 2.686-2.157 5.686-2 9 .125 4.555.792 8.889 2 13 2.181 8.027 6.181 15.027 12 21 1.836 2.088 4.169 3.421 7 4h1c1.014 1.174 2.347 1.84 4 2 4.481 1.148 9.148 1.315 14 .5 1.991-.374 3.658-1.207 5-2.5a38.496 38.496 0 0 0 6-4c1.291-.237 2.291.096 3 1a75.535 75.535 0 0 0-4 11h-1c-3.664 4.658-7.331 9.325-11 14-1.333 0-2 .667-2 2a75.568 75.568 0 0 0-9 8c-1.527-.073-2.527.594-3 2a34.253 34.253 0 0 0-11 8c-4.07 1.024-7.404 3.024-10 6a63.089 63.089 0 0 0-10 3.5c-1.898 1.417-3.564 2.917-5 4.5-2.991-.334-5.324.666-7 3-2.198-.38-3.865.287-5 2-6.805 2.219-13.138 5.219-19 9a51.569 51.569 0 0 0-7 1 1561.535 1561.535 0 0 0-29.5 10 11.25 11.25 0 0 1-3.5-1c-1.211.774-1.211 1.607 0 2.5-2.652.353-4.652 1.52-6 3.5-3.227.176-6.227.843-9 2-2.398-.241-4.398.426-6 2-4.415.361-8.415 1.694-12 4h-4c-2.652-.09-4.985.576-7 2l-27 4.5c-.556.383-.889.883-1 1.5h-3l-20 2c-6.653.554-13.32.888-20 1a821.756 821.756 0 0 1-55-1h-6c0-.667-.333-1-1-1-.111-.617-.444-1.117-1-1.5 1.791-.415 3.124-1.415 4-3a140.631 140.631 0 0 1-23-2c-1.723-.523-3.056-1.523-4-3 2.55-2.344 1.884-3.511-2-3.5-1.544.29-2.877.956-4 2a35.562 35.562 0 0 1-4-4.5 8.43 8.43 0 0 0-4-.5c-3-3.667-6.333-7-10-10a2072.478 2072.478 0 0 1-6-11c1.983-.117 3.65.55 5 2l1-2.5c-2.567-2.912-2.567-5.745 0-8.5a7.248 7.248 0 0 0-2-2.5c1.178-.967 2.511-1.467 4-1.5l1-4.5c-1.519-8.253-3.019-16.419-4.5-24.5a14.984 14.984 0 0 0-3.5 3 75.885 75.885 0 0 1 .5-20c3.493-1.877 7.327-2.544 11.5-2l-5 2h-5c-.295 2.235.039 4.235 1 6a156.927 156.927 0 0 1 2 14c-.38 2.198.287 3.865 2 5 .924 4.29 1.591 8.624 2 13a234.502 234.502 0 0 0 4 19 128.865 128.865 0 0 0 2 11c5.728.447 11.062-.553 16-3 6.983.149 9.483-3.184 7.5-10a41.284 41.284 0 0 1-2.5-6v-4a16.868 16.868 0 0 1 1-8 371.078 371.078 0 0 1 14-3v-4c.597-.235.93-.735 1-1.5a123.194 123.194 0 0 1-1.5-13.5c-1.967-1.231-1.801-2.231.5-3a68.19 68.19 0 0 0 3 8.5c-1.522 4.056-.856 7.723 2 11 .061 1.711-.606 3.044-2 4 .949.617 1.782.451 2.5-.5.421 2.52 1.588 4.52 3.5 6 1.91 2.952 2.91 6.286 3 10-.256 2.292.077 4.459 1 6.5a64.934 64.934 0 0 0 9-.5 133.557 133.557 0 0 1 12-3.5c.88-1.356 1.214-2.856 1-4.5h3c-.349 2.545.484 4.545 2.5 6 .617-.949.451-1.782-.5-2.5 1.558-.21 2.891-.71 4-1.5 2.398.241 4.398-.426 6-2a129.119 129.119 0 0 0 17-6h1c2.652.09 4.985-.576 7-2a39.064 39.064 0 0 0 4.5-2c.499-3.986.666-7.986.5-12-.215-1.679.452-2.679 2-3v2c-.09 2.652.576 4.985 2 7-.163 2.357.003 4.69.5 7 1.943 1.307 3.777 1.307 5.5 0 6.65-1.241 12.983-3.241 19-6 1.765-.961 3.765-1.295 6-1a20.69 20.69 0 0 1 5-1c1.967.239 3.801-.094 5.5-1l1-11 1-1c.21 1.558.71 2.891 1.5 4 .951 1.419 1.284 3.085 1 5v3a318.578 318.578 0 0 0 20-4c1.11-1.7 2.443-3.034 4-4h8a273.006 273.006 0 0 0 18-1.5c.964-4.066 1.297-8.233 1-12.5 2.357-.163 4.69.003 7 .5a11.333 11.333 0 0 1 1.5 3.5c.71-1.473 1.876-2.14 3.5-2-.475 2.823.525 4.823 3 6 3.29-1.264 6.624-2.43 10-3.5 1.442-.377 2.442-1.21 3-2.5h2c2.301-.56 4.634-1.06 7-1.5l2-7c-1.987-1.319-3.154-3.152-3.5-5.5a11.105 11.105 0 0 0-4.5-3c-.526-3.384-1.86-6.384-4-9-.086-.996.248-1.829 1-2.5-3.251-1.349-4.251-3.516-3-6.5a241.694 241.694 0 0 0-7-15 4.457 4.457 0 0 0-1.5 2c-2.195-2.623-1.695-4.623 1.5-6 5.186 2.772 7.52 7.105 7 13 1.955-1.224 4.622-2.224 8-3a24.93 24.93 0 0 1 8-1c.098 4.252 1.432 7.919 4 11-.241 2.398.426 4.398 2 6l2 8c-.09 2.652.576 4.985 2 7-.241 2.398.426 4.398 2 6v3c4.666-.514 9-1.847 13-4h3a5.576 5.576 0 0 0 3-1l1-5c-1.477-4.467-2.143-9.134-2-14 .38-2.198-.287-3.865-2-5v-4a67.844 67.844 0 0 1-.5-15c1.196-1.786 2.696-3.119 4.5-4v-1a19.22 19.22 0 0 1 6-1c.536-3.198-.131-5.865-2-8 .306-2.885-.027-5.552-1-8v-4h-6c2.244-.801 4.244-2.134 6-4a112.148 112.148 0 0 0 4 12c.551-1.913.718-3.913.5-6 2.807-1.963 4.973-4.463 6.5-7.5a47.11 47.11 0 0 1 12-2.5z"/><path style="opacity:1" fill="#531b2e" d="M414.5 343.5c-1.342 1.293-3.009 2.126-5 2.5-4.852.815-9.519.648-14-.5 6.487.348 12.82-.318 19-2z"/><path style="opacity:1" fill="#731d3a" d="M337.5 341.5c1.424 2.015 2.09 4.348 2 7-1.424-2.015-2.09-4.348-2-7z"/><path style="opacity:1" fill="#a5314b" d="M383.5 339.5c3.357-.284 5.691 1.049 7 4-2.831-.579-5.164-1.912-7-4z"/><path style="opacity:1" fill="#c83853" d="M354.5 311.5a119.978 119.978 0 0 0 3 13v4c-.38 2.198.287 3.865 2 5-.143 4.866.523 9.533 2 14l-1 5a5.576 5.576 0 0 1-3 1c.321-1.548 1.321-2.215 3-2a229.973 229.973 0 0 1-5.5-26 98.432 98.432 0 0 1-.5-14z"/><path style="opacity:1" fill="#58142e" d="M357.5 328.5c1.713 1.135 2.38 2.802 2 5-1.713-1.135-2.38-2.802-2-5z"/><path style="opacity:1" fill="#6b223b" d="M333.5 327.5c1.574 1.602 2.241 3.602 2 6-1.574-1.602-2.241-3.602-2-6z"/><path style="opacity:1" fill="#3b1225" d="M333.5 323.5v4c-2.568-3.081-3.902-6.748-4-11a24.93 24.93 0 0 0-8 1c-2.235.295-4.235-.039-6-1 1.915.284 3.581-.049 5-1h2l8-1a54.304 54.304 0 0 0 3 9z"/><path style="opacity:1" fill="#c33853" d="M333.5 323.5a54.304 54.304 0 0 1-3-9l-8 1c3.345-1.717 7.011-2.384 11-2v10z"/><path style="opacity:1" fill="#53132c" d="m116.5 339.5-3 2c-7.277-.11-9.611 3.224-7 10-.39 3.297-1.39 6.297-3 9a14.692 14.692 0 0 0 1-4.5c-.863-4.48-1.53-8.98-2-13.5h-7c2.865-1.283 5.865-1.283 9 0a32.735 32.735 0 0 1 12-3z"/><path style="opacity:1" fill="#b93651" d="M74.5 347.5c-3.084 2.581-6.75 3.581-11 3l5-2a19.222 19.222 0 0 1 6-1z"/><path style="opacity:1" fill="#a83049" d="M265.5 327.5a245.761 245.761 0 0 1-1 24h-1v-16l2-8z"/><path style="opacity:1" fill="#90334f" d="M63.5 350.5c-1.068.934-2.401 1.268-4 1v5c-.961-1.765-1.295-3.765-1-6h5z"/><path style="opacity:1" fill="#f33856" d="M95.5 342.5h7c.47 4.52 1.137 9.02 2 13.5a14.692 14.692 0 0 1-1 4.5 61.397 61.397 0 0 0-13 3c-5.493.086-7.16 2.753-5 8 4.997 1.213 9.663.546 14-2 2.888-.28 4.388 1.053 4.5 4 .747 3.424.58 6.757-.5 10l-8 1h-7a40.939 40.939 0 0 0 .5 9 82.91 82.91 0 0 1 3.5 12c1.493.812 2.16 2.145 2 4l-1 3c-2.28.636-4.28 1.636-6 3a146 146 0 0 1-15 2c-.257-3.671-1.257-7.005-3-10 .18-6.769-1.153-13.102-4-19a110.406 110.406 0 0 0-2-13c.38-2.198-.287-3.865-2-5a156.927 156.927 0 0 0-2-14v-5c1.599.268 2.932-.066 4-1 4.25.581 7.916-.419 11-3h5c5.029-.42 9.695-1.754 14-4 .992.172 1.658-.162 2-1z"/><path style="opacity:1" fill="#df3b59" d="M204.5 319.5a39.712 39.712 0 0 1 1 11c-.344 4.622.323 8.955 2 13l2 10v8c-1.63-1.526-2.463-3.526-2.5-6a50.464 50.464 0 0 1-.5-10c-1.175.219-2.175-.114-3-1 1.252-7.995 1.085-15.995-.5-24-2.989-.884-5.822-.384-8.5 1.5a22.885 22.885 0 0 1 3 7c-.532 2.02-1.865 2.853-4 2.5a9.86 9.86 0 0 0-1-6l-2 2c.589-1.873-.078-3.54-2-5a15.418 15.418 0 0 1-7 1v6h-1c-.973-2.448-1.306-5.115-1-8h6c2.398.241 4.398-.426 6-2 4.426-.598 8.76-.598 13 0z"/><path style="opacity:1" fill="#d33b57" d="M249.5 325.5a268.653 268.653 0 0 0 5 20c.204 3.018.537 6.018 1 9 .633 4.86 1.633 9.527 3 14v1c.475 2.582-.192 4.582-2 6a710.527 710.527 0 0 1-7-50z"/><path style="opacity:1" fill="#e7586c" d="M482.5 335.5c-1.581 9.419-4.914 18.085-10 26a13.116 13.116 0 0 1 1-7c4.231-4.416 6.064-9.75 5.5-16a14.698 14.698 0 0 1 3.5-3z"/><path style="opacity:1" fill="#86293e" d="M339.5 348.5c1.574 1.602 2.241 3.602 2 6-1.574-1.602-2.241-3.602-2-6z"/><path style="opacity:1" fill="#bb365a" d="M354.5 353.5c-4 2.153-8.334 3.486-13 4v-3a77.1 77.1 0 0 0 13-1z"/><path style="opacity:1" fill="#7d1e37" d="M107.5 351.5c1.268 2.405 1.935 5.072 2 8-1.869-2.135-2.536-4.802-2-8z"/><path style="opacity:1" fill="#da3b58" d="M127.5 336.5c.876-.131 1.543.202 2 1a386.06 386.06 0 0 1 5 24c.961 1.765 1.295 3.765 1 6-.09 2.652.576 4.985 2 7-.256 3.769.077 7.436 1 11v3c-.722-.418-1.222-1.084-1.5-2a1128.832 1128.832 0 0 0-5-28c-.667-1.333-1.333-1.333-2 0a2615.96 2615.96 0 0 1-1.5-20 183.87 183.87 0 0 0-15 3l3-2a136.753 136.753 0 0 1 11-3z"/><path style="opacity:1" fill="#6b2137" d="M209.5 353.5c.968 2.107 1.302 4.441 1 7a76.926 76.926 0 0 0 10-1c-3.345 1.717-7.011 2.384-11 2v-8z"/><path style="opacity:1" fill="#d43c5a" d="M229.5 343.5c2.185 2.131 3.518 4.797 4 8a62.53 62.53 0 0 1 3 17 455.18 455.18 0 0 1-7-23v-2z"/><path style="opacity:1" fill="#d43c5c" d="M231.5 371.5a32.462 32.462 0 0 1-.5 8c-1.356.88-2.856 1.214-4.5 1 .683-1.676 2.017-2.343 4-2l-2-18a150.408 150.408 0 0 0-17 3c-1.213-.247-1.88-.914-2-2 3.989.384 7.655-.283 11-2h1a29.23 29.23 0 0 1 9-1c.58 4.31.914 8.643 1 13z"/><path style="opacity:1" fill="#50152e" d="M255.5 354.5c2.198 4.297 3.198 8.964 3 14-1.367-4.473-2.367-9.14-3-14z"/><path style="opacity:1" fill="#7f2540" d="M418.5 351.5c-2.222 5.764-5.888 10.431-11 14 3.669-4.675 7.336-9.342 11-14z"/><path style="opacity:1" fill="#1b1125" d="M106.5 351.5h1c-.536 3.198.131 5.865 2 8v2c-.09 2.652.576 4.985 2 7a114.706 114.706 0 0 1 5 23c-1.912-1.48-3.079-3.48-3.5-6-.718.951-1.551 1.117-2.5.5 1.394-.956 2.061-2.289 2-4-2.856-3.277-3.522-6.944-2-11a68.19 68.19 0 0 1-3-8.5c-2.301.769-2.467 1.769-.5 3 .253 4.539.753 9.039 1.5 13.5-.07.765-.403 1.265-1 1.5.172-.992-.162-1.658-1-2a21.435 21.435 0 0 1-1-7v-4a32.462 32.462 0 0 0-8 .5c-.916.278-1.582.778-2 1.5-2.982.463-5.982.796-9 1-.82-3.779.513-6.112 4-7a61.397 61.397 0 0 1 13-3c1.61-2.703 2.61-5.703 3-9z"/><path style="opacity:1" fill="#a4324c" d="m162.5 351.5 2 4c.521 3.981.854 7.981 1 12-2.239-4.982-3.239-10.316-3-16z"/><path style="opacity:1" fill="#261125" d="M300.5 361.5c-1.624-.14-2.79.527-3.5 2a11.333 11.333 0 0 0-1.5-3.5 24.935 24.935 0 0 0-7-.5c.297 4.267-.036 8.434-1 12.5a273.006 273.006 0 0 1-18 1.5v-2h10c2.619.268 5.119-.065 7.5-1 .499-3.652.665-7.318.5-11 2.395-1.266 5.062-1.932 8-2 3.033-.193 4.699 1.141 5 4z"/><path style="opacity:1" fill="#d63e5b" d="M263.5 351.5h1v20h5v1h-7c.273-7.004.606-14.004 1-21z"/><path style="opacity:1" fill="#7f2238" d="M287.5 359.5a60.931 60.931 0 0 1-.5 11c-2.381.935-4.881 1.268-7.5 1 2.099-1.112 4.433-1.779 7-2-.313-3.542.021-6.875 1-10z"/><path style="opacity:1" fill="#aa3251" d="M37.5 351.5h1c.498 4.652.831 9.319 1 14-.722-.418-1.222-1.084-1.5-2a72.442 72.442 0 0 1-.5-12z"/><path style="opacity:1" fill="#7a223e" d="M109.5 361.5h1a51.569 51.569 0 0 1 1 7c-1.424-2.015-2.09-4.348-2-7z"/><path style="opacity:1" fill="#49162c" d="M300.5 361.5c.879 1.73 2.212 3.063 4 4 4.016-1.344 8.016-2.678 12-4-.558 1.29-1.558 2.123-3 2.5a176.935 176.935 0 0 0-10 3.5c-2.475-1.177-3.475-3.177-3-6z"/><path style="opacity:1" fill="#601831" d="M263.5 351.5c-.394 6.996-.727 13.996-1 21h7v1h-8v-14a99.97 99.97 0 0 1 2-8z"/><path style="opacity:1" fill="#491427" d="m185.5 356.5 2 3v2c.248 4.406.915 8.74 2 13-1.548.321-2.215 1.321-2 3h-1c.247-3.439-.086-6.772-1-10 .306-3.445.306-7.111 0-11z"/><path style="opacity:1" fill="#f43856" d="M138.5 388.5v1a34.301 34.301 0 0 0 1 11 759.365 759.365 0 0 1-18 5v-1c-.228-6.626-1.562-12.959-4-19a6.895 6.895 0 0 1 2-4c-.825-.886-1.825-1.219-3-1 .515-4.296-.652-7.963-3.5-11-.098-3.022-.932-5.689-2.5-8h-1v-2c-.065-2.928-.732-5.595-2-8h-1c-2.611-6.776-.277-10.11 7-10a183.87 183.87 0 0 1 15-3c.474 6.663.974 13.329 1.5 20 .667-1.333 1.333-1.333 2 0a1128.832 1128.832 0 0 1 5 28c.278.916.778 1.582 1.5 2z"/><path style="opacity:1" fill="#742439" d="M105.5 371.5c-1.374-2.839-3.374-3.506-6-2h-4c.418-.722 1.084-1.222 2-1.5a32.462 32.462 0 0 1 8-.5v4z"/><path style="opacity:1" fill="#5d192e" d="M165.5 367.5c.904.709 1.237 1.709 1 3h5c-1.765.961-3.765 1.295-6 1v-4z"/><path style="opacity:1" fill="#a03450" d="M185.5 367.5c.914 3.228 1.247 6.561 1 10a144.255 144.255 0 0 1-2-7.5 319.35 319.35 0 0 0-13 .5 108.282 108.282 0 0 1 14-3z"/><path style="opacity:1" fill="#be3655" d="M90.5 363.5c-3.487.888-4.82 3.221-4 7 3.018-.204 6.018-.537 9-1h4c-4.337 2.546-9.003 3.213-14 2-2.16-5.247-.493-7.914 5-8z"/><path style="opacity:1" fill="#551733" d="M135.5 367.5c1.424 2.015 2.09 4.348 2 7-1.424-2.015-2.09-4.348-2-7z"/><path style="opacity:1" fill="#8b2944" d="M61.5 370.5c1.713 1.135 2.38 2.802 2 5-1.713-1.135-2.38-2.802-2-5z"/><path style="opacity:1" fill="#aa3653" d="M405.5 367.5c-1.936 3.811-4.936 6.478-9 8a75.568 75.568 0 0 1 9-8z"/><path style="opacity:1" fill="#321125" d="M261.5 359.5v14c-1.557.966-2.89 2.3-4 4a318.578 318.578 0 0 1-20 4v-3c.761.891 1.761 1.558 3 2 4.94-2.058 9.94-3.392 15-4 0-.667.333-1 1-1 1.808-1.418 2.475-3.418 2-6 1.619-3.048 2.619-6.381 3-10z"/><path style="opacity:1" fill="#b23755" d="M99.5 369.5c2.626-1.506 4.626-.839 6 2a21.435 21.435 0 0 0 1 7c.584 2.785-.416 4.452-3 5 1.08-3.243 1.247-6.576.5-10-.112-2.947-1.612-4.28-4.5-4z"/><path style="opacity:1" fill="#b83957" d="M236.5 368.5c.617.111 1.117.444 1.5 1a42.36 42.36 0 0 0 1.5 8.5c5.234-.87 10.567-1.37 16-1.5-5.06.608-10.06 1.942-15 4-1.239-.442-2.239-1.109-3-2 .284-1.915-.049-3.581-1-5v-5z"/><path style="opacity:1" fill="#8d2843" d="M393.5 377.5a32.728 32.728 0 0 1-11 8 34.253 34.253 0 0 1 11-8z"/><path style="opacity:1" fill="#c03554" d="M40.5 367.5a145.3 145.3 0 0 0 9 32c-6.615-9.527-9.615-20.194-9-32z"/><path style="opacity:1" fill="#ed4d64" d="M464.5 373.5a67.912 67.912 0 0 1-16 16c.194-2.83.861-5.496 2-8 4.918-1.185 8.085-4.185 9.5-9 1.356.88 2.856 1.214 4.5 1z"/><path style="opacity:1" fill="#1f1127" d="M136.5 345.5a994.555 994.555 0 0 1 6 25c.951 1.419 1.284 3.085 1 5-.341 3.66.325 6.993 2 10v2c1.482 4.515 2.148 9.181 2 14h4c-1.109.79-2.442 1.29-4 1.5.951.718 1.117 1.551.5 2.5-2.016-1.455-2.849-3.455-2.5-6h-3c.214 1.644-.12 3.144-1 4.5a133.557 133.557 0 0 0-12 3.5l2-2c2.689-1.617 5.689-2.617 9-3 1.198-5.83.531-11.497-2-17-.923-3.564-1.256-7.231-1-11 .09-2.652-.576-4.985-2-7 .295-2.235-.039-4.235-1-6v-4c1.292 1.755 2.292 3.755 3 6l1-4a40.574 40.574 0 0 1-2-14z"/><path style="opacity:1" fill="#2d1025" d="M229.5 345.5a455.18 455.18 0 0 0 7 23v5c-.79-1.109-1.29-2.442-1.5-4l-1 1-1 11c-1.699.906-3.533 1.239-5.5 1a36.354 36.354 0 0 1 4.5-2c.805-3.196.638-6.196-.5-9-.086-4.357-.42-8.69-1-13a29.23 29.23 0 0 0-9 1c2.419-2.362 5.419-3.362 9-3a72.032 72.032 0 0 0-1-11z"/><path style="opacity:1" fill="#822641" d="M143.5 375.5c1.081 3.127 1.747 6.46 2 10-1.675-3.007-2.341-6.34-2-10z"/><path style="opacity:1" fill="#6a1f3a" d="M189.5 376.5c1.424 2.015 2.09 4.348 2 7-1.424-2.015-2.09-4.348-2-7z"/><path style="opacity:1" fill="#c23954" d="M225.5 380.5a10.165 10.165 0 0 0-3 3c-2.235-.295-4.235.039-6 1h-2c3.063-2.686 6.729-4.019 11-4z"/><path style="opacity:1" fill="#581c30" d="M231.5 371.5c1.138 2.804 1.305 5.804.5 9a36.354 36.354 0 0 0-4.5 2 20.69 20.69 0 0 0-5 1 10.165 10.165 0 0 1 3-3h1c1.644.214 3.144-.12 4.5-1 .497-2.646.664-5.313.5-8z"/><path style="opacity:1" fill="#6d1e37" d="M214.5 384.5h2c-6.017 2.759-12.35 4.759-19 6v-1a408.122 408.122 0 0 0 17-5z"/><path style="opacity:1" fill="#af3551" d="M187.5 361.5a205.164 205.164 0 0 1 6 28h4v1c-1.723 1.307-3.557 1.307-5.5 0a24.935 24.935 0 0 1-.5-7c.09-2.652-.576-4.985-2-7v-2a68.045 68.045 0 0 1-2-13z"/><path style="opacity:1" fill="#320e21" d="M106.5 378.5c.838.342 1.172 1.008 1 2v4a371.078 371.078 0 0 0-14 3 16.868 16.868 0 0 0-1 8c-1.157-2.773-1.824-5.773-2-9 2.053.098 3.72-.569 5-2l8-1c2.584-.548 3.584-2.215 3-5z"/><path style="opacity:1" fill="#70223b" d="M138.5 385.5c2.531 5.503 3.198 11.17 2 17-.124-4.549-.791-8.882-2-13v-4z"/><path style="opacity:1" fill="#661931" d="M182.5 391.5c-2.015 1.424-4.348 2.09-7 2 2.015-1.424 4.348-2.09 7-2z"/><path style="opacity:1" fill="#d23b58" d="M110.5 361.5c1.568 2.311 2.402 4.978 2.5 8 2.848 3.037 4.015 6.704 3.5 11 1.175-.219 2.175.114 3 1a6.895 6.895 0 0 0-2 4c2.438 6.041 3.772 12.374 4 19l-2-3c-.09-3.714-1.09-7.048-3-10a114.706 114.706 0 0 0-5-23 51.569 51.569 0 0 0-1-7z"/><path style="opacity:1" fill="#902d47" d="M65.5 388.5c2.847 5.898 4.18 12.231 4 19a234.502 234.502 0 0 1-4-19z"/><path style="opacity:1" fill="#ca3958" d="M95.5 384.5c-1.28 1.431-2.947 2.098-5 2 .176 3.227.843 6.227 2 9v10a82.91 82.91 0 0 0-3.5-12 40.939 40.939 0 0 1-.5-9h7z"/><path style="opacity:1" fill="#ad324f" d="M372.5 391.5c-1.216 1.951-2.882 3.451-5 4.5-3.615.47-6.949 1.637-10 3.5 1.436-1.583 3.102-3.083 5-4.5a63.089 63.089 0 0 1 10-3.5z"/><path style="opacity:1" fill="#e84f65" d="M448.5 389.5c-9.907 8.895-20.907 16.228-33 22v-3c2.514-.254 4.848-1.087 7-2.5l-1-1a12.93 12.93 0 0 1 5-.5c-.061-2.092-1.061-3.592-3-4.5a9.454 9.454 0 0 0 2.5-1.5c3.992 3.127 6.825 2.461 8.5-2 1.607-1.121 3.94-1.788 7-2 .268-2.619-.065-5.119-1-7.5 2.332 1.404 4.999 2.238 8 2.5z"/><path style="opacity:1" fill="#c93a59" d="M148.5 393.5c.951 1.419 1.284 3.085 1 5a829.469 829.469 0 0 0 25-5 129.119 129.119 0 0 1-17 6c-2.982.463-5.982.796-9 1v-7z"/><path style="opacity:1" fill="#72223e" d="M145.5 387.5c1.37 1.75 2.37 3.75 3 6v7c3.018-.204 6.018-.537 9-1-1.602 1.574-3.602 2.241-6 2h-4c.148-4.819-.518-9.485-2-14z"/><path style="opacity:1" fill="#9c324d" d="M357.5 399.5c-2.009 1.565-4.343 2.565-7 3 1.676-2.334 4.009-3.334 7-3z"/><path style="opacity:1" fill="#962f49" d="M92.5 399.5a41.284 41.284 0 0 0 2.5 6c1.983 6.816-.517 10.149-7.5 10 1.72-1.364 3.72-2.364 6-3l1-3c.16-1.855-.507-3.188-2-4v-6z"/><path style="opacity:1" fill="#922c47" d="M49.5 399.5c1.745 1.533 2.745 3.533 3 6-2.475-1.187-3.475-3.187-3-6z"/><path style="opacity:1" fill="#cc3c5a" d="M138.5 389.5c1.209 4.118 1.876 8.451 2 13-3.311.383-6.311 1.383-9 3-3.499.944-6.832.944-10 0a759.365 759.365 0 0 0 18-5 34.301 34.301 0 0 1-1-11z"/><path style="opacity:1" fill="#a32e4b" d="M350.5 402.5c-1.135 1.713-2.802 2.38-5 2 1.135-1.713 2.802-2.38 5-2z"/><path style="opacity:1" fill="#421428" d="m119.5 401.5 2 3v1c3.168.944 6.501.944 10 0l-2 2a64.934 64.934 0 0 1-9 .5c-.923-2.041-1.256-4.208-1-6.5z"/><path style="opacity:1" fill="#ac3451" d="M345.5 404.5c-1.074 1.385-2.407 2.551-4 3.5a81.181 81.181 0 0 1-15 5.5c5.862-3.781 12.195-6.781 19-9z"/><path style="opacity:1" fill="#e35d72" d="M34.5 402.5c3.736 7.176 6.736 14.843 9 23-4.35-7.051-7.35-14.718-9-23z"/><path style="opacity:1" fill="#902b48" d="M69.5 407.5c1.743 2.995 2.743 6.329 3 10a146 146 0 0 0 15-2c-4.938 2.447-10.272 3.447-16 3a128.865 128.865 0 0 1-2-11z"/><path style="opacity:1" fill="#d43a56" d="M326.5 413.5c-5.824 5.429-12.824 8.096-21 8 4.988-1.56 9.655-3.893 14-7a51.569 51.569 0 0 1 7-1z"/><path style="opacity:1" fill="#291026" d="M319.5 414.5c-4.345 3.107-9.012 5.44-14 7-3.644.815-7.311 1.648-11 2.5a81.316 81.316 0 0 0-3 2.5 34.48 34.48 0 0 0-11 3c1.348-1.98 3.348-3.147 6-3.5-1.211-.893-1.211-1.726 0-2.5a11.25 11.25 0 0 0 3.5 1c9.98-3.492 19.813-6.826 29.5-10z"/><path style="opacity:1" fill="#9c2e4a" d="M61.5 420.5c3.667 3 7 6.333 10 10-4.333-2.333-7.667-5.667-10-10z"/><path style="opacity:1" fill="#e6556b" d="M415.5 411.5a211.125 211.125 0 0 1-39 19c.848-1.593 2.181-2.76 4-3.5 5.33-2.33 10.663-4.664 16-7l-1-1 6-1c4.126-3.426 8.792-5.593 14-6.5z"/><path style="opacity:1" fill="#c43a56" d="M291.5 426.5c-5.982 2.92-12.315 5.087-19 6.5l1 1a161.018 161.018 0 0 0-20 3.5c3.585-2.306 7.585-3.639 12-4 2.398.241 4.398-.426 6-2 2.773-1.157 5.773-1.824 9-2a34.48 34.48 0 0 1 11-3z"/><path style="opacity:1" fill="#5c1834" d="M271.5 431.5c-1.602 1.574-3.602 2.241-6 2 1.602-1.574 3.602-2.241 6-2z"/><path style="opacity:1" fill="#e64f66" d="M376.5 430.5c-5.93 3.461-12.264 6.127-19 8 1.618-.951 2.951-2.284 4-4a244.243 244.243 0 0 0 15-4z"/><path style="opacity:1" fill="#e44f66" d="M43.5 426.5c.996-.086 1.83.248 2.5 1 1.052 3 2.885 5.333 5.5 7a29.07 29.07 0 0 1 2 8c-4.32-4.624-7.654-9.957-10-16z"/><path style="opacity:1" fill="#7b273c" d="M249.5 437.5c-2.015 1.424-4.348 2.09-7 2 2.015-1.424 4.348-2.09 7-2z"/><path style="opacity:1" fill="#1b1128" d="M71.5 430.5a8.43 8.43 0 0 1 4 .5 35.562 35.562 0 0 0 4 4.5c1.123-1.044 2.456-1.71 4-2 3.884-.011 4.55 1.156 2 3.5.944 1.477 2.277 2.477 4 3a140.631 140.631 0 0 0 23 2c-.876 1.585-2.209 2.585-4 3 .556.383.889.883 1 1.5a19.22 19.22 0 0 0-6-1h-1c-2.015-1.424-4.348-2.09-7-2-9.208-2.268-17.208-6.601-24-13z"/><path style="opacity:1" fill="#e75069" d="M357.5 438.5c-6.612 3.464-13.612 6.131-21 8 2.477-3.194 5.81-4.527 10-4v-3a72.032 72.032 0 0 1 11-1z"/><path style="opacity:1" fill="#691a36" d="M95.5 444.5v-1c2.652-.09 4.985.576 7 2a51.56 51.56 0 0 1-7-1z"/><path style="opacity:1" fill="#be3855" d="M249.5 437.5h4c-12.514 4.32-25.514 6.987-39 8 .111-.617.444-1.117 1-1.5l27-4.5c2.652.09 4.985-.576 7-2z"/><path style="opacity:1" fill="#d03e5a" d="M95.5 444.5a51.56 51.56 0 0 0 7 1h1c2.015 1.424 4.348 2.09 7 2h6l3 2c-8.601.021-16.601-1.646-24-5z"/><path style="opacity:1" fill="#6e223b" d="M103.5 445.5a19.22 19.22 0 0 1 6 1c.667 0 1 .333 1 1-2.652.09-4.985-.576-7-2z"/><path style="opacity:.769" fill="#e66681" d="M334.5 447.5c-2.715 1.572-5.715 2.572-9 3 2.584-1.972 5.584-2.972 9-3z"/><path style="opacity:1" fill="#290d24" d="M116.5 447.5a821.756 821.756 0 0 0 55 1v1h-52l-3-2z"/><path style="opacity:1" fill="#5a1932" d="m191.5 447.5-6 2h-14v-1c6.68-.112 13.347-.446 20-1z"/><path style="opacity:1" fill="#c73c57" d="M211.5 445.5c-8.365 2.467-17.032 3.801-26 4l6-2 20-2z"/><path style="opacity:1" fill="#a8324d" d="M130.5 449.5h37c-5.628 1.329-11.628 1.996-18 2l-18-.5c-.556-.383-.889-.883-1-1.5z"/><path style="opacity:1" fill="#ee425e" d="M84.5 468.5c-11.076-4.419-20.076-11.419-27-21h4a4.932 4.932 0 0 1 .5-3c1.61.647 3.11 1.48 4.5 2.5-4.103.708-5.103 2.874-3 6.5 3-.333 4.333 1 4 4 2.747.313 5.413-.02 8-1 1.468-1.833 3.135-2.166 5-1-.36 3.237-2.026 5.403-5 6.5 1.438.219 2.771.719 4 1.5 1.97 1.461 3.636 3.127 5 5z"/><path style="opacity:1" fill="#e55068" d="M280.5 463.5c-13.317 4.076-26.984 7.076-41 9-.086-.996.248-1.829 1-2.5a2629.536 2629.536 0 0 1 40-6.5z"/><path style="opacity:1" fill="#eb435c" d="M84.5 468.5c8.725.932 17.058 2.932 25 6l5-.5c2.761-2.784 5.761-3.117 9-1-2.391.691-2.391 1.691 0 3a77.6 77.6 0 0 1 10 0c1.256.417 1.923 1.25 2 2.5h-7c-15.427-.526-30.094-3.859-44-10z"/><path style="opacity:1" fill="#e2546a" d="M238.5 472.5c-36.415 7.221-73.082 9.221-110 6h7c34.494.47 68.827-1.53 103-6z"/></svg>